<svg width="52" height="65" viewBox="0 0 52 65" fill="none" xmlns="http://www.w3.org/2000/svg">
<path d="M0.588945 13.93C0.588945 10.33 1.90895 7.27 4.54895 4.75C7.18895 2.23 10.3689 0.969995 14.0889 0.969995C17.0289 0.969995 20.6889 2.23 25.0689 4.75C27.4689 6.13 29.3289 6.81999 30.6489 6.81999C31.1889 6.81999 31.9089 6.64 32.8089 6.28V5.74C32.8089 2.14 33.7089 0.339998 35.5089 0.339998C36.4089 0.339998 36.8589 0.879998 36.8589 1.96C36.8589 3.16 36.0489 4.9 34.4289 7.18V10.06C37.1289 8.5 38.7789 6.43 39.3789 3.85C40.0389 4.27 40.8789 4.75 41.8989 5.29C45.3189 6.97 47.5689 8.53 48.6489 9.97C50.2089 12.07 50.9889 14.77 50.9889 18.07C50.9889 21.37 49.9389 24.19 47.8389 26.53C46.1589 28.45 43.7289 29.59 40.5489 29.95C39.7089 30.07 39.2889 30.28 39.2889 30.58C39.2889 30.88 39.5589 31.03 40.0989 31.03C39.9789 31.03 40.6689 31 42.1689 30.94C43.6689 30.88 44.4789 30.85 44.5989 30.85C47.8389 30.85 49.9389 31.96 50.8989 34.18C51.1389 34.84 51.3189 36.22 51.4389 38.32C51.4989 38.8 51.529 39.49 51.529 40.39V45.88C51.529 47.98 51.679 49.6 51.9789 50.74C46.5789 50.92 42.8589 51.49 40.8189 52.45C36.7989 54.31 34.6089 57.37 34.2489 61.63C30.7089 59.89 26.8989 58.39 22.8189 57.13C18.2589 61.99 13.8489 64.42 9.58895 64.42C7.54895 64.42 5.86895 63.76 4.54895 62.44C3.22895 61.18 2.56895 59.56 2.56895 57.58C2.56895 54.34 4.00895 51.73 6.88895 49.75C9.82895 47.71 13.6389 46.69 18.3189 46.69C18.1989 46.69 21.1089 47.02 27.0489 47.68L27.8589 47.77C28.0389 47.29 28.1289 46.93 28.1289 46.69C28.1289 45.13 26.8389 43.54 24.2589 41.92C22.6389 40.9 21.0189 40.39 19.3989 40.39C18.0789 40.39 17.1489 40.9 16.6089 41.92C15.6489 41.26 15.1689 40.33 15.1689 39.13C15.1689 36.91 16.3689 35.41 18.7689 34.63C18.4689 34.57 18.1389 34.54 17.7789 34.54C16.2789 34.54 14.9889 35.05 13.9089 36.07C12.8289 37.09 12.2889 38.32 12.2889 39.76C12.2889 42.46 13.7289 43.96 16.6089 44.26C15.9489 44.56 15.2589 44.71 14.5389 44.71C12.4989 44.71 10.7889 43.99 9.40895 42.55C8.02895 41.11 7.33895 39.34 7.33895 37.24C7.33895 34.96 8.08895 32.92 9.58895 31.12C11.0889 29.32 13.0389 28.21 15.4389 27.79C15.4989 25.51 15.7989 23.74 16.3389 22.48C16.9389 21.16 18.0489 19.78 19.6689 18.34C21.2889 16.9 23.3589 15.58 25.8789 14.38C26.3589 14.14 27.3789 13.66 28.9389 12.94C30.1989 12.34 31.2189 11.86 31.9989 11.5L32.8089 11.14V8.53C29.7489 10.39 26.8089 11.32 23.9889 11.32C22.9689 11.32 21.2889 11.26 18.9489 11.14C16.6089 11.02 15.5289 10.96 15.7089 10.96C12.6489 10.96 10.4289 11.32 9.04895 12.04C6.76895 13.18 5.62895 15.01 5.62895 17.53C5.62895 18.85 6.01895 19.99 6.79895 20.95C7.63895 21.85 8.65895 22.3 9.85895 22.3C10.7589 22.3 11.7489 21.91 12.8289 21.13C13.5489 20.59 14.0589 20.32 14.3589 20.32C14.8389 20.32 15.0789 20.56 15.0789 21.04C15.0789 21.46 14.6889 21.94 13.9089 22.48C12.5889 23.44 11.1189 23.92 9.49895 23.92C7.03895 23.92 4.93895 22.96 3.19895 21.04C1.45895 19.06 0.588945 16.69 0.588945 13.93ZM34.4289 12.94V29.05C34.3689 29.05 34.6089 29.08 35.1489 29.14C36.6489 29.14 37.8789 28.33 38.8389 26.71C39.8589 25.03 40.3689 22.9 40.3689 20.32C40.3689 18.1 39.8889 16.3 38.9289 14.92C37.9689 13.54 36.7089 12.85 35.1489 12.85C35.0889 12.85 34.9689 12.85 34.7889 12.85C34.6689 12.91 34.5489 12.94 34.4289 12.94ZM32.8089 13.12C28.3689 14.08 26.1489 16.96 26.1489 21.76C26.1489 23.8 26.8689 26.38 28.3089 29.5C30.2289 33.7 31.1889 37.15 31.1889 39.85C31.1889 42.25 30.4689 44.98 29.0289 48.04L29.5689 48.22C29.7489 48.28 30.1989 48.4 30.9189 48.58L32.3589 48.94L32.8089 49.12V13.12ZM34.4289 33.01V49.48L34.9689 49.66C36.0489 49.96 37.8789 50.59 40.4589 51.55L41.0889 51.73C40.6089 50.47 40.3689 48.67 40.3689 46.33V37.51C40.3689 35.77 39.9489 34.54 39.1089 33.82C38.5689 33.34 37.2189 33.07 35.0589 33.01C35.0589 33.01 34.8489 33.01 34.4289 33.01ZM21.1989 56.77C19.0989 56.29 17.1489 56.05 15.3489 56.05C13.0089 56.05 11.1189 56.47 9.67895 57.31C8.23895 58.09 7.51895 59.14 7.51895 60.46C7.51895 62.02 8.44895 62.8 10.3089 62.8C13.5489 62.8 17.1789 60.79 21.1989 56.77Z" fill="white"/>
</svg>
