<svg width="46" height="46" viewBox="0 0 46 46" fill="none" xmlns="http://www.w3.org/2000/svg">
<path d="M28.7749 0.746755C16.5282 -2.48918 3.93292 4.92857 0.74677 17.1753C-2.43938 29.4221 4.92859 42.0173 17.2251 45.2035C29.4719 48.3896 42.0671 41.0216 45.2533 28.7251C48.4394 16.4286 41.0714 3.9329 28.7749 0.746755ZM18.1212 41.6191C7.86582 38.9307 1.64287 28.4264 4.33119 18.1212C7.0195 7.81602 17.5736 1.64286 27.829 4.33117C38.1342 7.01948 44.3074 17.5736 41.6688 27.829C38.9805 38.1342 28.4264 44.3074 18.1212 41.6191ZM20.8095 31.3636C25.4394 32.5584 30.1688 29.7706 31.3637 25.1905C32.5585 20.5606 29.7706 15.8312 25.1905 14.6364C20.6104 13.4416 15.8312 16.2294 14.6364 20.8095C13.3918 25.3896 16.1797 30.1688 20.8095 31.3636ZM24.6927 16.3788C28.3269 17.3247 30.5173 21.0584 29.5714 24.6926C28.6256 28.3268 24.8918 30.5173 21.2576 29.5714C17.6234 28.6255 15.4329 24.8918 16.3788 21.2576C17.3745 17.6234 21.0585 15.4329 24.6927 16.3788ZM22.5022 24.7922C23.4979 25.0411 24.4935 24.4437 24.7424 23.4481C24.9914 22.4524 24.394 21.4567 23.3983 21.2078C22.4026 20.9589 21.4069 21.5563 21.158 22.552C20.9589 23.4978 21.5563 24.4935 22.5022 24.7922ZM23.2489 22.0043C23.7966 22.1537 24.145 22.7013 23.9957 23.2489C23.8463 23.7965 23.2987 24.145 22.7511 23.9957C22.2035 23.8463 21.855 23.2987 22.0043 22.7511C22.1537 22.1537 22.7013 21.855 23.2489 22.0043ZM25.9372 11.5996C22.2533 10.6537 18.4697 11.5498 15.6818 13.7403L16.3788 14.5866C18.9178 12.5952 22.303 11.7987 25.6385 12.645C29.0736 13.5411 31.6624 16.0303 32.8572 19.0671L33.9026 18.6688C32.6082 15.3333 29.7208 12.5952 25.9372 11.5996ZM20.013 34.3507C23.7966 35.3463 27.6299 34.3507 30.4178 32.0606L29.7208 31.2143C27.1818 33.3052 23.697 34.2013 20.2619 33.3052C16.9264 32.4589 14.3875 30.1191 13.1429 27.1818L12.0974 27.5801C13.5411 30.816 16.3788 33.4048 20.013 34.3507ZM26.684 8.76191C22.0541 7.5671 17.3745 8.71212 13.8398 11.4502L14.5368 12.2965C17.7727 9.75758 22.1039 8.71212 26.3853 9.80736C30.7663 10.9524 34.052 14.0887 35.5953 18.0216L36.6407 17.6234C34.9979 13.3918 31.4134 9.95671 26.684 8.76191ZM10.4546 28.1775L9.40911 28.5758C11.1017 32.7078 14.6364 35.9935 19.2663 37.1883C23.9957 38.4329 28.7749 37.1883 32.3095 34.3009L31.6126 33.4545C28.3766 36.1429 23.9459 37.2879 19.565 36.1429C15.2836 35.0476 11.9979 32.0108 10.4546 28.1775ZM27.1818 6.87013C32.5585 8.26407 36.6407 12.1472 38.4827 16.9762L39.5282 16.5779C37.5368 11.4502 33.2056 7.31818 27.4805 5.82468C21.855 4.38095 16.1797 5.77489 11.9979 9.11039L12.6948 9.95671C16.6277 6.82035 21.9546 5.52598 27.1818 6.87013ZM18.8182 39.0801C13.5909 37.7359 9.55846 33.9524 7.6169 29.3225L6.57145 29.671C8.61257 34.6494 12.894 38.632 18.5195 40.1255C24.2446 41.6191 30.0693 40.1255 34.3009 36.6407L33.6039 35.7944C29.6212 39.0801 24.145 40.474 18.8182 39.0801Z" fill="white"/>
</svg>
