<svg width="214" height="46" viewBox="0 0 214 46" fill="none" xmlns="http://www.w3.org/2000/svg">
<path d="M108.867 8.27371V16.5474H110.166H111.465V8.27371V-1.14441e-05H110.166H108.867V8.27371Z" fill="#EAA031"/>
<path d="M42.4459 0.827419C40.4854 1.40022 38.3123 2.90646 36.1864 5.134C33.9189 7.48882 28.8405 13.3653 20.9985 22.6785C8.97568 36.9348 8.40879 37.55 7.03881 37.55C6.11761 37.55 5.07831 36.6378 4.724 35.5134C4.39332 34.4314 4.3697 20.5571 4.70038 19.4751C5.05469 18.3507 5.99951 17.7567 7.15691 17.884C8.17259 18.0113 9.21189 18.6265 12.9675 21.3632C15.7311 23.421 16.487 23.5908 17.7152 22.5088C18.542 21.7663 18.6128 20.8753 17.9278 20.0903C17.1956 19.263 11.6684 15.3382 10.4165 14.7655C5.73968 12.644 1.08645 14.7018 0.212497 19.2842C-0.16543 21.1511 -8.72666e-05 35.6407 0.40146 36.7014C2.03127 41.1141 6.94432 42.8112 10.8653 40.3503C12.3062 39.4381 12.8022 38.9077 18.8254 31.822C21.2347 28.9581 25.6045 23.8029 28.5334 20.3661C40.509 6.23716 42.375 4.4127 44.7843 4.4127C45.8708 4.4127 46.6739 4.94306 46.981 5.87651C47.1699 6.42809 47.2172 11.265 47.1699 21.5754L47.0991 36.4468L46.5322 36.9984C45.8236 37.6773 44.6898 37.7197 43.3434 37.1257C42.8002 36.8924 40.2019 35.174 37.5328 33.2859C28.3444 26.773 28.5807 26.9427 27.6831 26.9427C27.0926 26.9427 26.6674 27.1124 26.1714 27.5579C25.2738 28.3641 25.2502 29.2551 26.1477 30.1249C26.8564 30.8037 38.1942 38.8865 39.8712 39.8836C41.6191 40.9444 43.3671 41.4535 45.2094 41.4535C46.6503 41.4535 47.0755 41.3686 48.162 40.8171C48.8706 40.4564 49.8154 39.7563 50.217 39.2684C51.7287 37.5076 51.7051 37.7622 51.7051 20.9601C51.7051 5.96137 51.7051 5.74922 51.209 4.5612C49.8627 1.33657 46.107 -0.275745 42.4459 0.827419Z" fill="#EAA031"/>
<path d="M69.0661 0.997078C68.9716 1.20922 67.578 4.66721 65.9482 8.698C64.3184 12.7288 62.9248 16.1443 62.8776 16.2716C62.7831 16.4838 63.1374 16.5474 64.1767 16.5474H65.5939L66.4206 14.3623L67.2237 12.1984H70.6015H73.9792L74.8059 14.3623L75.6326 16.5474H77.0498C78.3962 16.5474 78.4434 16.5262 78.3253 16.0595C78.2309 15.8049 76.8136 12.2196 75.1602 8.10399L72.1368 0.636429H70.6959C69.5149 0.636429 69.2078 0.700073 69.0661 0.997078ZM73.1997 10.0133C73.1997 10.1194 72.0423 10.183 70.6015 10.183C69.1842 10.183 68.0032 10.1406 68.0032 10.0982C68.0032 9.99209 70.0582 4.646 70.4125 3.81863C70.6251 3.35191 70.7904 3.69134 71.9242 6.57653C72.6092 8.37978 73.1997 9.92845 73.1997 10.0133Z" fill="#EAA031"/>
<path d="M118.456 4.47633C115.339 4.92184 113.354 7.70096 113.662 11.1377C113.827 12.9198 114.276 13.9381 115.386 15.0624C117.677 17.3324 122.897 17.1203 124.787 14.6806C125.117 14.2351 125.401 13.7684 125.401 13.6199C125.401 13.238 122.897 13.2804 122.732 13.6623C122.496 14.1714 121.149 14.6806 119.968 14.7018C118.079 14.723 116.614 13.5562 116.378 11.8166L116.307 11.2226L120.913 11.1802L125.519 11.1377L125.59 10.0982C125.684 8.80412 125.07 7.04331 124.196 6.08865C122.968 4.75212 120.771 4.1369 118.456 4.47633ZM121.409 6.70387C122.165 7.04331 123.181 8.69805 122.968 9.2072C122.874 9.41935 122.07 9.46178 119.567 9.39813C116.354 9.33449 116.307 9.31327 116.402 8.84655C116.756 6.83116 119.33 5.728 121.409 6.70387Z" fill="#EAA031"/>
<path d="M84.821 4.81574C84.3958 4.98546 83.7344 5.4734 83.3565 5.87647L82.6479 6.59777V5.6219V4.66724H81.3487H80.0496V12.5167V20.3661H81.3487H82.6479V17.4385L82.6715 14.5321L83.3092 15.2109C84.2304 16.1656 85.2934 16.5687 86.9232 16.5687C90.4662 16.5899 92.4031 14.4684 92.4031 10.5013C92.4031 7.59486 91.4347 5.7704 89.4033 4.9006C88.1751 4.34902 85.9311 4.30659 84.821 4.81574ZM87.8444 6.76749C89.0963 7.3615 89.734 8.63438 89.734 10.5013C89.734 12.3682 89.0963 13.641 87.8444 14.2351C85.4351 15.4019 83.0022 13.8956 82.7187 11.0741C82.3644 7.63729 85.0335 5.40975 87.8444 6.76749Z" fill="#EAA031"/>
<path d="M99.3003 4.7521C98.8987 4.9006 98.2373 5.38854 97.8122 5.81283L97.0563 6.59777V5.6219V4.66724H95.7572H94.4581V12.5167V20.3661H95.7572H97.0563V17.4385L97.0799 14.5321L97.5523 15.1261C99.0877 16.9505 103.032 17.099 104.922 15.4019C106.906 13.6198 107.449 9.50418 106.056 7.02207C105.536 6.13105 104.166 4.96424 103.268 4.64602C102.442 4.37023 100.127 4.43388 99.3003 4.7521ZM102.843 7.213C103.812 8.04037 104.237 9.33447 104.095 10.9892C103.93 13.2167 102.584 14.6381 100.647 14.6381C99.7254 14.6381 98.4972 14.1078 98.0011 13.4925C96.6784 11.859 96.7729 8.78288 98.1901 7.34029C99.3711 6.17348 101.568 6.10984 102.843 7.213Z" fill="#EAA031"/>
<path d="M81.2779 24.8848C80.5693 25.5637 80.6165 26.3911 81.3724 26.9214C81.7267 27.176 82.1991 27.3669 82.4589 27.3669C83.0494 27.3669 84.0651 26.4335 84.0651 25.8819C84.0651 25.2879 83.0494 24.3969 82.3408 24.3969C82.0337 24.3969 81.5613 24.609 81.2779 24.8848Z" fill="#EAA031"/>
<path d="M100.859 24.9484C100.221 25.691 100.245 26.2001 100.954 26.8365C101.662 27.473 102.229 27.4942 103.056 26.9214C103.835 26.3698 103.859 25.4788 103.127 24.8636C102.371 24.2271 101.45 24.2696 100.859 24.9484Z" fill="#EAA031"/>
<path d="M127.29 33.0949V41.3686H128.59H129.889V33.0949V24.8212H128.59H127.29V33.0949Z" fill="#EAA031"/>
<path d="M153.273 25.7758C153.155 25.9031 151.879 28.6186 150.439 31.822C148.974 35.0254 147.722 37.7409 147.628 37.8257C147.51 37.9106 146.187 35.2163 144.652 31.822L141.841 25.6697H140.235H138.628V33.5192V41.3686H139.927H141.227L141.274 35.6194L141.345 29.8702L143.919 35.5133L146.518 41.1777L147.557 41.114L148.596 41.0504L151.076 35.6406C152.423 32.6706 153.651 30.146 153.769 30.0187C153.887 29.9127 153.982 32.0766 153.982 35.5982V41.3686H155.281H156.58V33.5192V25.6697L155.706 25.6485C155.21 25.6485 154.501 25.6061 154.147 25.5849C153.793 25.5637 153.391 25.6485 153.273 25.7758Z" fill="#EAA031"/>
<path d="M64.2239 33.5404V41.411L68.6645 41.3262C72.8453 41.2625 73.1524 41.2413 74.3807 40.7109C77.0262 39.5653 78.5851 37.359 78.7977 34.389C79.0575 31.1431 77.9946 28.4701 75.8451 27.0063C74.2153 25.9031 72.9634 25.6697 68.3102 25.6697H64.2239V33.5404ZM72.4438 28.0246C74.4988 28.6398 75.8215 30.443 75.9869 32.9039C76.1758 35.874 75.1601 37.7833 72.8453 38.738C71.8533 39.1623 71.2864 39.2471 69.255 39.2471H66.8221V33.5404V27.8124L67.3654 27.7488C68.3811 27.6215 71.6879 27.7912 72.4438 28.0246Z" fill="#EAA031"/>
<path d="M106.977 28.0034V29.4884H105.914H104.851V30.443V31.3977H105.914H106.977V35.3436C106.977 39.7987 107.142 40.4564 108.512 41.0292C108.985 41.2413 109.929 41.3686 110.851 41.3686H112.41V40.4139V39.4593H111.465C110.827 39.4593 110.355 39.3108 110.048 39.035C109.622 38.6531 109.575 38.3349 109.575 35.0042V31.3977H110.992H112.41V30.443V29.4884H110.992H109.575V28.0034V26.5183H108.276H106.977V28.0034Z" fill="#EAA031"/>
<path d="M185.397 28.0033V29.4884H184.334H183.271V30.443V31.3977H184.334H185.397V35.2163C185.397 40.6261 185.728 41.1989 188.964 41.3474L190.83 41.411V40.4351V39.4593H189.956C188.184 39.4593 187.995 39.0138 187.995 34.8133V31.3977H189.412H190.83V30.443V29.4884H189.412H187.995V28.0033V26.5183H186.696H185.397V28.0033Z" fill="#EAA031"/>
<path d="M89.0254 29.7218C87.6318 30.2946 87.2067 30.6552 86.4744 31.9281C86.0256 32.7342 85.8367 33.4131 85.7658 34.7072C85.5296 38.6319 87.6082 41.1353 91.104 41.1565C92.6394 41.1565 93.7968 40.7322 94.718 39.8624L95.403 39.2047V40.817C95.403 42.2596 95.3321 42.493 94.7652 43.0658C93.5369 44.2962 90.7025 44.4023 89.427 43.2567C88.8601 42.7264 88.5767 42.6415 87.4665 42.6415C86.2146 42.6415 86.1674 42.6627 86.3327 43.1082C86.8996 44.8054 88.5294 45.654 91.4111 45.7813C93.655 45.8873 94.7416 45.654 96.1588 44.8478C97.8359 43.8719 97.8595 43.7659 98.0012 36.2135L98.1193 29.4884H96.891H95.6392V30.4855V31.5038L94.8833 30.7825C93.348 29.3187 91.0568 28.8944 89.0254 29.7218ZM94.0094 31.9705C95.025 32.7555 95.403 33.6677 95.403 35.3649C95.403 36.468 95.2612 37.0196 94.8597 37.656C93.9149 39.1835 91.7418 39.6927 90.2065 38.7592C88.931 37.9955 88.4585 37.062 88.4585 35.3224C88.4349 32.6918 89.616 31.3977 92.0252 31.3977C92.9937 31.3977 93.3952 31.5038 94.0094 31.9705Z" fill="#EAA031"/>
<path d="M117.252 29.5521C115.551 30.0612 114.606 30.8037 114.205 31.9706C114.039 32.4373 114.087 32.4585 115.291 32.4585C116.307 32.4585 116.638 32.3524 117.086 31.9281C118.126 30.9522 120.913 31.0371 121.74 32.0978C121.929 32.3524 122.094 32.9676 122.094 33.4556V34.3678H120.63C116.024 34.3678 113.591 35.5983 113.591 37.9107C113.591 39.226 114.11 40.2018 115.197 40.8383C117.016 41.9202 119.708 41.7505 121.267 40.4352L122.094 39.7351V40.5413V41.3686H123.417H124.716L124.645 36.5317L124.574 31.6735L123.936 30.931C123.582 30.528 122.897 30.0188 122.401 29.8067C121.267 29.3187 118.504 29.1914 117.252 29.5521ZM122.094 36.8075C122.094 38.3562 121.031 39.3745 119.141 39.6078C117.37 39.82 116.189 39.1411 116.189 37.9107C116.189 36.6378 117.394 36.1286 120.393 36.0862L122.094 36.065V36.8075Z" fill="#EAA031"/>
<path d="M162.603 29.4672C160.973 29.8491 159.651 30.8037 159.273 31.8645C159.084 32.4373 159.225 32.5221 160.454 32.5009C161.233 32.4797 161.658 32.3524 162.083 31.9493C163.099 31.0371 165.367 30.9522 166.524 31.7796C166.878 32.0554 167.067 32.4797 167.162 33.2646L167.28 34.3678H165.768C163.713 34.3678 161.328 34.7497 160.477 35.1952C158.092 36.4468 158.092 39.7139 160.501 40.9868C162.272 41.9202 165.012 41.6444 166.406 40.3715L167.209 39.6502V40.52V41.3686H168.508H169.807V36.8499C169.807 32.5858 169.784 32.2888 169.288 31.3977C168.532 30.0612 167.209 29.446 164.989 29.3611C164.068 29.3187 163.005 29.3611 162.603 29.4672ZM167.209 36.7226C167.209 37.0833 167.02 37.7197 166.808 38.1228C166.123 39.4169 163.761 40.0533 162.272 39.3532C161.517 39.0138 161.304 38.6531 161.304 37.7833C161.304 36.6165 162.532 36.1286 165.508 36.0862L167.209 36.065V36.7226Z" fill="#EAA031"/>
<path d="M175.193 29.4884C173.941 29.8278 172.902 30.5703 172.429 31.4826C171.839 32.5433 171.815 33.0737 172.264 34.0283C172.76 35.0891 174.083 35.7679 176.586 36.2983C179.539 36.9135 180.342 37.5075 179.822 38.7168C179.586 39.2683 178.405 39.6714 176.988 39.6714C175.783 39.6714 175.594 39.6078 174.838 38.9289C174.13 38.2925 173.87 38.1864 172.854 38.1864C171.886 38.1864 171.697 38.25 171.697 38.5895C171.697 39.2471 172.736 40.3927 173.823 40.9443C174.744 41.411 175.193 41.4747 177.012 41.4747C180.578 41.4747 182.326 40.3715 182.515 37.9955C182.586 37.0196 182.515 36.7014 182.09 36.2134C181.405 35.4285 180.224 34.9193 178.074 34.495C175.901 34.0495 174.838 33.604 174.65 33.0737C174.248 31.9705 175.405 31.1856 177.366 31.1856C178.429 31.1856 178.689 31.2704 179.326 31.8644C179.988 32.4372 180.224 32.5221 181.145 32.4797C181.712 32.4584 182.232 32.3948 182.279 32.3524C182.468 32.1826 181.995 31.3341 181.334 30.634C180.224 29.4884 177.224 28.9368 175.193 29.4884Z" fill="#EAA031"/>
<path d="M195.955 29.5733C193.64 30.3158 192.247 32.2251 192.058 34.8769C191.869 37.6136 193.073 40.0321 195.128 40.9656C197.916 42.2384 202.262 41.3474 203.466 39.226C204.01 38.2925 203.915 38.1864 202.616 38.1864C201.624 38.1864 201.341 38.2713 200.963 38.6956C200.041 39.7351 197.467 39.9685 196.191 39.1199C195.506 38.6744 194.987 37.8258 194.727 36.7438L194.562 36.065H199.309H204.057V35.0467C204.057 32.5433 202.522 30.2734 200.349 29.6157C199.026 29.2126 197.16 29.1914 195.955 29.5733ZM199.734 31.6099C200.632 32.0978 201.104 32.7343 201.317 33.6677L201.459 34.3678H198.034H194.609L194.751 33.7738C195.317 31.6099 197.774 30.5279 199.734 31.6099Z" fill="#EAA031"/>
<path d="M210.694 29.5732C210.246 29.7217 209.584 30.146 209.206 30.5491L208.545 31.2704V30.3794V29.4884H207.246H205.947V35.4285V41.3686H207.222H208.498L208.592 37.3802C208.639 34.0071 208.734 33.307 209.088 32.8191C209.773 31.8856 210.6 31.525 212.135 31.5038H213.505V30.3794V29.2762L212.513 29.2975C211.946 29.2975 211.143 29.4247 210.694 29.5732Z" fill="#EAA031"/>
<path d="M80.9944 35.4285V41.3686H82.2936H83.5927V35.4285V29.4884H82.2936H80.9944V35.4285Z" fill="#EAA031"/>
<path d="M100.836 35.4285V41.3686H102.135H103.434V35.4285V29.4884H102.135H100.836V35.4285Z" fill="#EAA031"/>
</svg>
