<svg width="122" height="46" viewBox="0 0 122 46" fill="none" xmlns="http://www.w3.org/2000/svg">
<path d="M31.7115 45.0722H30.051L34.7085 34.35H36.0653L40.6823 45.0722H38.9813L37.8878 42.4472H32.7848L31.7115 45.0722ZM33.3315 41.1144H37.3613L35.3565 36.0865L33.3315 41.1144ZM47.4863 35.6625H50.9288V34.35H42.525V35.6625H45.9675V45.0722H47.466V35.6625H47.4863ZM57.3885 34.35H55.0598V45.0722H56.5177V36.1067H56.538L60.0817 45.0722H61.0335L64.5975 36.1067H64.6178V45.0722H66.1162V34.35H63.7875L60.6082 42.5885L57.3885 34.35ZM81.1823 39.701C81.1823 40.4885 81.0405 41.2154 80.7773 41.8616C80.4938 42.5279 80.1292 43.0933 79.6432 43.5577C79.1572 44.0424 78.5902 44.4058 77.922 44.6683C77.2538 44.9308 76.545 45.0722 75.7552 45.0722C74.9655 45.0722 74.2568 44.9308 73.5885 44.6683C72.9202 44.4058 72.3532 44.0424 71.8875 43.5577C71.4015 43.0731 71.037 42.5077 70.7535 41.8616C70.4902 41.1952 70.3485 40.4885 70.3485 39.701C70.3485 38.9135 70.4902 38.1865 70.7535 37.5202C71.0168 36.8538 71.4015 36.3086 71.8875 35.8442C72.3735 35.3798 72.9405 35.0163 73.5885 34.7538C74.2568 34.4913 74.9655 34.3702 75.7552 34.3702C76.5247 34.3702 77.2538 34.4913 77.922 34.7538C78.5902 35.0163 79.1572 35.3798 79.6432 35.8442C80.1292 36.3086 80.4938 36.874 80.7773 37.5202C81.0405 38.1663 81.1823 38.8933 81.1823 39.701ZM79.6432 39.701C79.6432 39.1356 79.5622 38.6106 79.3597 38.126C79.1775 37.6413 78.9143 37.1971 78.57 36.8336C78.2258 36.45 77.8208 36.1673 77.355 35.9452C76.869 35.7231 76.3425 35.6221 75.7552 35.6221C75.168 35.6221 74.6415 35.7231 74.1555 35.9452C73.6695 36.1673 73.2645 36.45 72.9405 36.8336C72.6165 37.2173 72.3532 37.6413 72.171 38.126C71.9888 38.6308 71.8875 39.1558 71.8875 39.701C71.8875 40.2664 71.9685 40.7914 72.171 41.2962C72.3532 41.801 72.6165 42.225 72.9405 42.6087C73.2848 42.9722 73.6898 43.275 74.1555 43.477C74.6213 43.6789 75.1478 43.8 75.735 43.8C76.3223 43.8 76.8488 43.6991 77.3348 43.477C77.8208 43.275 78.2258 42.9722 78.57 42.6087C78.9143 42.2452 79.1572 41.801 79.3597 41.2962C79.542 40.7914 79.6432 40.2664 79.6432 39.701ZM91.368 35.5211C91.044 35.1577 90.639 34.875 90.1125 34.673C89.586 34.4711 89.0393 34.35 88.4318 34.35C88.0065 34.35 87.5813 34.4105 87.1763 34.5115C86.751 34.6125 86.3865 34.7942 86.0423 35.0365C85.7183 35.2788 85.4348 35.5817 85.2323 35.9452C85.0298 36.3086 84.9285 36.7529 84.9285 37.2577C84.9285 37.7221 85.0095 38.126 85.1513 38.4288C85.3133 38.7519 85.5158 39.0144 85.7588 39.2365C86.0018 39.4587 86.2852 39.6404 86.6093 39.7616C86.9333 39.9029 87.2573 40.0241 87.5813 40.1048C87.9053 40.2058 88.209 40.3067 88.5127 40.4077C88.8165 40.5087 89.0595 40.6298 89.2822 40.7712C89.505 40.9125 89.6873 41.0942 89.8088 41.2962C89.9303 41.4981 90.0113 41.7606 90.0113 42.0635C90.0113 42.3664 89.9505 42.6289 89.829 42.851C89.7075 43.0731 89.5455 43.2549 89.343 43.3962C89.1405 43.5375 88.9178 43.6385 88.695 43.7193C88.452 43.7799 88.209 43.8202 87.966 43.8202C87.5003 43.8202 87.0548 43.7193 86.6497 43.4972C86.2448 43.275 85.9207 42.9923 85.6777 42.6289L84.564 43.5577C84.9487 44.0424 85.455 44.426 86.0625 44.6683C86.67 44.9106 87.2775 45.052 87.9255 45.052C88.371 45.052 88.8165 44.9914 89.2417 44.8702C89.667 44.7491 90.0518 44.5472 90.3757 44.3049C90.6998 44.0424 90.963 43.7193 91.1655 43.3356C91.368 42.952 91.4693 42.4875 91.4693 41.9625C91.4693 41.4577 91.368 41.0337 91.1858 40.7106C91.0035 40.3875 90.7605 40.1048 90.477 39.8827C90.1935 39.6606 89.8695 39.4789 89.505 39.3577C89.1405 39.2164 88.7962 39.0952 88.452 38.9942C88.1685 38.8933 87.885 38.8125 87.642 38.7115C87.3787 38.6308 87.156 38.5096 86.9738 38.3885C86.7915 38.2673 86.6295 38.1058 86.5283 37.9038C86.427 37.7221 86.3663 37.4798 86.3663 37.1971C86.3663 36.9144 86.427 36.6721 86.5485 36.45C86.67 36.2481 86.832 36.0663 87.0143 35.925C87.2168 35.7836 87.4193 35.6827 87.6623 35.6221C87.9053 35.5615 88.128 35.5211 88.371 35.5211C88.7962 35.5211 89.2012 35.6019 89.5455 35.7836C89.8897 35.9654 90.1732 36.1875 90.3757 36.4702L91.368 35.5211ZM0 23.648H3.483C9.98325 23.648 15.2685 18.3575 15.2685 11.8959C15.2685 5.41415 9.963 0.143912 3.483 0.143912H0V23.648ZM33.5542 0.123718H30.0713C23.571 0.123718 18.2858 5.41415 18.2858 11.8757C18.2858 18.3575 23.5913 23.6278 30.0713 23.6278H33.5542V0.123718ZM49.2277 0.123718H40.7025V23.648H49.2277C55.728 23.648 61.0133 18.3777 61.0133 11.8959C61.0133 5.39396 55.728 0.123718 49.2277 0.123718ZM49.2277 20.0739H46.7977H44.2868V3.6776H46.7977H49.2277C53.7637 3.6776 57.4492 7.35263 57.4492 11.8757C57.4492 16.3989 53.7435 20.0739 49.2277 20.0739ZM70.9965 7.37282C66.4808 7.37282 62.8155 11.0277 62.8155 15.5306C62.8155 20.0335 66.4808 23.6883 70.9965 23.6883C75.5122 23.6883 79.1775 20.0335 79.1775 15.5306C79.1775 11.0277 75.5122 7.37282 70.9965 7.37282ZM70.9965 20.397C68.2627 20.397 66.0758 18.1758 66.0758 15.4902C66.0758 12.7642 68.3032 10.5834 70.9965 10.5834C73.6898 10.5834 75.9173 12.8046 75.9173 15.4902C75.9375 18.2162 73.71 20.397 70.9965 20.397ZM81.486 23.6681H85.0702V0.123718H81.486V23.6681ZM96.3292 7.37282C94.5877 7.37282 92.988 7.91802 91.6515 8.84687V0.143912H88.0673V23.6883H91.6515V22.2143C92.9678 23.1431 94.5877 23.6883 96.3292 23.6883C100.845 23.6883 104.51 20.0335 104.51 15.5306C104.51 11.0277 100.825 7.37282 96.3292 7.37282ZM96.3292 20.397C94.1423 20.397 92.2995 18.9835 91.6515 17.0248C91.4895 16.5402 91.3883 16.0152 91.3883 15.47C91.3883 14.9248 91.4895 14.3998 91.6515 13.9152C92.2995 11.9565 94.1625 10.543 96.3292 10.543C99.0427 10.543 101.25 12.7642 101.25 15.4498C101.25 18.2162 99.0225 20.397 96.3292 20.397ZM117.592 7.37282L112.934 17.8123L108.277 7.37282H104.368L110.97 22.1941L110.828 22.4768L110.788 22.5778L109.35 25.8086V25.8287C108.925 26.7778 107.791 27.222 106.839 26.798L106.333 26.5759L105.341 28.8172L104.895 29.8067L106.13 30.3519C108.459 31.3817 111.193 30.3317 112.246 28.0095C112.246 27.9893 120.71 9.14976 121.5 7.37282H117.592Z" fill="#EAA031"/>
</svg>
