<svg width="138" height="59" viewBox="0 0 138 59" fill="none" xmlns="http://www.w3.org/2000/svg">
<path d="M15.4533 0.148342C13.4032 0.437183 12.3178 0.726025 10.3366 1.57556C6.06416 3.41055 2.5497 7.11451 0.999208 11.4471C0.22396 13.571 0 14.8622 0 17.19C0 21.7774 1.36099 25.2775 4.54812 28.8455C8.97564 33.8068 16.6937 35.8117 23.1196 33.6879C24.4117 33.2631 26.2378 32.4306 26.9614 31.9378C30.183 29.6951 31.9574 27.3843 33.1806 23.8333C33.7147 22.3041 33.7836 21.8454 33.8869 19.7046C33.9386 18.3793 33.9386 16.9351 33.8697 16.4933L33.7491 15.6948L25.7038 15.7288L17.6584 15.7797L17.6067 17.9715C17.5723 19.6196 17.624 20.1973 17.779 20.3162C17.8996 20.3842 20.4665 20.4522 23.4986 20.4522H28.9943L28.8737 21.2847C28.219 26.161 23.4125 29.797 17.6067 29.797C15.505 29.797 12.404 28.8625 10.7156 27.7242C5.4095 24.1561 3.54891 17.4108 6.32257 11.7869C7.8903 8.62667 10.5778 6.41789 14.299 5.21156C15.5911 4.80378 19.0711 4.71883 20.5354 5.07563C22.1376 5.44942 24.0154 6.31595 25.2042 7.18247C25.7038 7.57325 26.2034 7.87909 26.2723 7.87909C26.4273 7.87909 29.6317 4.63387 29.6317 4.48096C29.6145 4.27707 26.7202 2.32315 25.8244 1.89838C22.4305 0.301258 18.7954 -0.310406 15.4533 0.148342Z" fill="#EAA031"/>
<path d="M109.689 1.18468C109.62 1.25264 109.568 8.5926 109.568 17.5127V33.7048H112.066H114.564L114.53 17.4277L114.478 1.16769L112.135 1.11671C110.86 1.09972 109.758 1.13371 109.689 1.18468Z" fill="#EAA031"/>
<path d="M44.7059 12.3816C41.536 12.9423 38.4867 15.134 36.8673 17.9885C35.6269 20.1633 35.1618 23.3915 35.7303 25.8042C36.9535 30.9353 41.5705 34.5374 46.9628 34.5544C48.2549 34.5544 48.8061 34.4694 50.1154 34.0276C54.0261 32.7533 56.438 30.3747 57.7646 26.4838C58.2125 25.1415 58.2642 22.0322 57.8335 20.5371C57.1616 18.1244 55.7317 15.9496 53.9572 14.6753C51.976 13.2311 50.4772 12.5855 48.496 12.2966C46.98 12.0927 46.222 12.1097 44.7059 12.3816ZM48.9267 17.088C50.4428 17.6317 51.7865 18.872 52.579 20.4521C53.4576 22.1852 53.4232 24.5978 52.4756 26.4838C51.7348 27.979 50.9079 28.8115 49.4608 29.5081C48.4616 29.9839 48.2032 30.0348 46.7905 30.0348C44.8438 30.0179 43.9307 29.6441 42.5525 28.2848C41.3293 27.0785 40.6402 25.6852 40.5196 24.1901C40.2612 20.5201 42.3285 17.5637 45.6535 16.8671C46.4287 16.6972 48.1515 16.8161 48.9267 17.088Z" fill="#EAA031"/>
<path d="M93.8049 12.3306C92.2545 12.6024 90.256 13.5539 89.2568 14.4714C89.1362 14.5903 88.8434 14.8112 88.6194 14.9641C87.982 15.3719 86.397 17.3768 85.8285 18.4982C84.9499 20.2482 84.6915 21.3696 84.6915 23.4255C84.6915 24.7168 84.7948 25.5323 84.9844 26.093C86.6727 30.8334 89.4808 33.382 94.0117 34.2825C95.2004 34.5204 95.4933 34.5374 96.6475 34.3165C98.1808 34.0276 99.2661 33.5859 100.507 32.7703C101.006 32.4475 101.471 32.1757 101.54 32.1757C101.712 32.1757 101.661 34.0106 101.454 35.217C101.213 36.5762 100.799 37.4088 99.9036 38.3772C98.801 39.5496 97.7845 39.9064 95.5277 39.9064C93.7877 39.9064 93.5638 39.8724 92.8402 39.4477C91.9616 38.9379 91.0141 37.9695 90.2905 36.8481L89.8253 36.1345L88.6366 36.6442C87.9647 36.916 87.0172 37.3408 86.5176 37.5617L85.6046 37.9695L86.1731 39.0059C86.9828 40.5011 89.0501 42.489 90.4455 43.1516C92.3923 44.0691 93.581 44.29 95.9929 44.205C97.1471 44.1541 98.5081 44.0181 98.9733 43.8992C100.11 43.6104 101.73 42.8118 102.626 42.0982C103.573 41.3336 104.762 39.6345 105.33 38.2243C106.226 36.0325 106.295 34.7243 106.261 23.3915L106.209 13.0612L103.987 13.0102C101.54 12.9592 101.471 12.9932 101.471 13.9447C101.471 14.6413 101.213 14.6583 100.455 13.9957C99.6451 13.2821 98.3014 12.6704 96.9059 12.3816C95.5622 12.1097 95.0626 12.0927 93.8049 12.3306ZM97.9396 17.088C98.9044 17.4448 100.438 18.7191 100.989 19.6026C101.454 20.3672 101.833 21.7094 101.936 23.0007C102.091 25.1075 101.385 26.9765 99.8346 28.5227C98.6632 29.678 97.7329 30.0178 95.8723 30.0178C93.9772 30.0178 93.0469 29.661 91.8065 28.4037C89.6875 26.2799 89.1535 22.9497 90.48 20.1803C91.0313 18.9909 92.5818 17.5297 93.7188 17.105C95.0109 16.6122 96.6475 16.5952 97.9396 17.088Z" fill="#EAA031"/>
<path d="M69.6 12.3986C65.362 13.1971 62.2782 15.7457 60.7622 19.6536C60.2626 20.9618 60.2281 21.1827 60.2281 23.3405C60.2281 25.3794 60.2798 25.7702 60.7105 26.9765C61.2618 28.5906 62.1059 29.8649 63.4841 31.2412C64.4144 32.1757 66.4301 33.5349 66.878 33.5349C66.9641 33.5349 67.257 33.6538 67.4982 33.7898C68.1701 34.1466 70.2891 34.5544 71.4434 34.5544C72.8733 34.5544 76.0259 33.7218 76.5255 33.2291C76.6461 33.1101 76.8012 33.0252 76.8873 33.0252C77.1974 33.0252 78.679 31.9038 79.5576 31.0203C80.6774 29.8819 81.5388 28.4377 82.1245 26.7556C82.5208 25.6343 82.5725 25.1755 82.5725 23.3405C82.5725 21.7264 82.5036 21.0128 82.2796 20.3672C80.9014 16.5443 78.4378 14.0127 75.0267 12.8743C73.9586 12.5345 73.235 12.4155 71.8396 12.3816C70.8404 12.3476 69.8412 12.3646 69.6 12.3986ZM73.0111 16.8671C78.9202 18.3962 79.5748 26.9086 73.9931 29.661C73.7174 29.797 72.9938 30.0009 72.4081 30.1198C71.5295 30.2897 71.1505 30.2727 70.1513 30.0518C66.6196 29.2533 64.4144 25.7702 65.1035 22.0322C65.6548 18.9909 68.239 16.7482 71.4261 16.5613C71.6156 16.5613 72.3392 16.6802 73.0111 16.8671Z" fill="#EAA031"/>
<path d="M125.504 12.4664C122.834 13.0271 120.077 14.8961 118.561 17.1219C118.268 17.5636 117.786 18.5151 117.476 19.2287C116.994 20.3841 116.907 20.7579 116.838 22.5929C116.752 25.0225 117.045 26.6366 117.872 28.3017C118.51 29.542 118.751 29.8479 120.267 31.36C121.128 32.2096 121.766 32.6513 122.903 33.195C126.141 34.7242 129.449 34.7412 132.74 33.212C134.187 32.5494 135.548 31.462 136.633 30.1197L137.133 29.4911L136.392 29.0153C135.996 28.7435 135.599 28.4886 135.496 28.4377C135.41 28.3867 134.859 28.0469 134.307 27.6731C133.515 27.1464 133.274 27.0444 133.205 27.2483C133.05 27.6901 131.74 28.8964 131.017 29.2702C129.156 30.2047 126.71 30.3576 125.211 29.61C123.902 28.9644 122.214 27.1124 122.61 26.7386C122.679 26.6536 123.454 26.3138 124.298 25.974C125.159 25.6342 126.09 25.2604 126.365 25.1245C127.813 24.4618 128.915 24.0031 130.328 23.4594C133.325 22.304 137.047 20.7409 137.167 20.571C137.512 20.0273 135.169 15.9495 133.946 14.9981C133.756 14.8281 133.377 14.5053 133.084 14.2505C132.481 13.7238 131.689 13.299 130.397 12.8063C129.346 12.4155 126.641 12.2116 125.504 12.4664ZM129.329 16.986C130.207 17.2748 131.448 18.3112 131.448 18.753C131.448 18.9229 130.845 19.2457 129.673 19.7215C128.708 20.0952 126.503 20.9957 124.78 21.6924C123.04 22.406 121.593 22.9157 121.542 22.8477C121.438 22.6608 121.783 20.588 121.955 20.3671C122.041 20.2821 122.145 19.9933 122.214 19.7215C122.282 19.4666 122.73 18.8549 123.23 18.3452C123.954 17.6316 124.367 17.3767 125.177 17.1389C125.728 16.986 126.279 16.8161 126.365 16.7991C126.882 16.6292 128.622 16.7481 129.329 16.986Z" fill="#EAA031"/>
<path d="M7.99367 47.6711C7.83862 47.9769 7.54575 48.5376 7.35625 48.9114C6.71882 50.2027 6.39149 50.5255 5.80575 50.5255C4.97882 50.5255 2.58417 50.8993 2.58417 51.0353C2.58417 51.1032 3.20437 51.7319 3.96239 52.4455C5.09942 53.4989 5.3406 53.8047 5.27169 54.1276C4.92714 55.6567 4.63427 57.3558 4.68595 57.4747C4.72041 57.5597 5.51288 57.2538 6.44318 56.7951C7.37348 56.3363 8.25209 55.9626 8.38991 55.9626C8.52773 55.9626 9.40635 56.3363 10.3366 56.7951C12.3006 57.7466 12.2661 57.7806 11.801 55.8776C11.4564 54.4504 11.4737 53.6518 11.8699 53.278C12.9208 52.3266 14.1267 51.1202 14.1267 51.0183C14.1267 50.8993 13.0586 50.7294 11.4564 50.5935C10.2677 50.4916 10.1816 50.4066 9.23407 48.5546C8.88952 47.875 8.52773 47.2633 8.45882 47.2124C8.37268 47.1614 8.16595 47.3653 7.99367 47.6711Z" fill="#EAA031"/>
<path d="M21.1039 47.6711C20.9317 47.9769 20.5871 48.6566 20.3287 49.1663C19.743 50.3386 19.5707 50.4746 18.6059 50.5765C16.0735 50.8654 15.6772 50.9163 15.6772 51.0523C15.6772 51.1202 16.2974 51.7489 17.0554 52.4285C18.3992 53.6178 18.4509 53.6858 18.3475 54.2635C18.2958 54.5863 18.1408 55.4868 18.0202 56.2514L17.7962 57.6446L18.5026 57.3048C18.8988 57.1179 19.6568 56.7441 20.2081 56.4553C20.7422 56.1834 21.3279 55.9625 21.5002 55.9625C21.6552 55.9795 22.5511 56.3363 23.4814 56.7951C25.3592 57.7126 25.2903 57.7466 24.894 55.9625C24.5495 54.4164 24.5667 53.7198 24.963 53.312C25.1525 53.1421 25.7382 52.5644 26.255 52.0547C26.7891 51.562 27.2198 51.0862 27.2198 51.0183C27.2198 50.8993 26.3412 50.7634 24.5323 50.5935C23.3608 50.4916 23.3263 50.4576 22.3788 48.6226C22.017 47.909 21.638 47.2803 21.5519 47.2294C21.4657 47.1614 21.259 47.3653 21.1039 47.6711Z" fill="#EAA031"/>
<path d="M33.7147 48.6396C33.2667 49.4721 32.8016 50.2197 32.681 50.3217C32.5776 50.4066 32.0091 50.5425 31.4578 50.5935C29.5283 50.7804 28.7703 50.9163 28.7703 51.0353C28.7703 51.1202 29.4077 51.7489 30.1657 52.4455L31.5784 53.7198L31.2855 55.215C31.1305 56.0475 30.9582 56.931 30.9238 57.2029L30.8376 57.6616L31.5784 57.3048C31.9747 57.1179 32.7499 56.7441 33.3012 56.4553C33.8352 56.1834 34.3865 55.9626 34.5244 55.9626C34.6449 55.9626 35.5063 56.3194 36.4366 56.7441C37.3497 57.1689 38.1594 57.4747 38.2111 57.4238C38.2455 57.3728 38.2111 56.897 38.1077 56.3533C38.0044 55.8096 37.8665 54.9941 37.8149 54.5353L37.6943 53.7028L39.0036 52.4625C39.7271 51.7829 40.3129 51.1542 40.3129 51.0693C40.3129 50.9163 39.9339 50.8484 37.5564 50.5935C37.0396 50.5425 36.5572 50.4406 36.4883 50.3726C36.3333 50.2367 35.179 48.1978 34.9206 47.5862C34.8172 47.3313 34.6794 47.1274 34.6277 47.1274C34.576 47.1274 34.1626 47.807 33.7147 48.6396Z" fill="#EAA031"/>
<path d="M47.2556 47.773C47.0661 48.1128 46.6871 48.8434 46.4115 49.3871C45.9291 50.3896 45.8257 50.4575 44.6198 50.5935C42.5353 50.8143 41.8634 50.9163 41.8634 51.0352C41.8634 51.1202 42.4836 51.7488 43.2588 52.4454L44.6543 53.7028L44.3786 55.2999C44.2408 56.1834 44.0685 57.0839 43.9996 57.2878L43.879 57.6956L44.637 57.3218C45.0505 57.1179 45.843 56.7441 46.3943 56.4552C47.4107 55.9455 48.0481 55.8436 48.3238 56.1154C48.4271 56.2174 49.1679 56.5742 49.9776 56.948L51.4592 57.6276L51.1147 55.6737L50.7701 53.7367L52.2172 52.3435L53.6644 50.9503L52.803 50.8313C51.3214 50.6105 50.7529 50.5425 50.1844 50.5425C49.6331 50.5255 49.3919 50.1857 47.9964 47.5182C47.8931 47.2973 47.7725 47.1274 47.7208 47.1274C47.6691 47.1274 47.4624 47.4162 47.2556 47.773Z" fill="#EAA031"/>
<path d="M59.8664 48.7585C59.384 49.6251 58.9188 50.3896 58.7982 50.4236C58.6949 50.4746 57.799 50.5935 56.817 50.6955C55.8523 50.8144 55.0081 50.9333 54.9737 50.9673C54.9392 51.0013 55.5422 51.6469 56.3174 52.3775C57.9196 53.8897 57.8335 53.5329 57.2477 56.2684C57.1099 56.948 57.0066 57.5257 57.041 57.5597C57.0755 57.5937 57.8852 57.2539 58.8327 56.7951C59.7802 56.3533 60.6416 55.9796 60.7622 55.9796C60.9172 55.9626 63.1913 56.965 64.4489 57.5937C64.5006 57.6276 64.4834 57.2878 64.4145 56.8461C64.3283 56.4043 64.1905 55.5208 64.0871 54.8752L63.8976 53.7028L65.2759 52.3775C66.0511 51.6639 66.6713 51.0353 66.6713 50.9843C66.6713 50.9163 65.3448 50.7294 63.9149 50.5935C62.7434 50.4916 62.64 50.4066 61.7959 48.8435C61.3479 47.994 60.9172 47.2803 60.8483 47.2294C60.7794 47.1954 60.3315 47.875 59.8664 48.7585Z" fill="#EAA031"/>
<path d="M99.18 47.6032C99.0077 47.7731 98.8871 48.0279 98.8871 48.1808C98.8871 48.5207 99.4384 48.9964 99.8519 48.9964C100.334 48.9964 100.954 48.5207 100.954 48.1469C100.954 47.3653 99.7313 46.9915 99.18 47.6032Z" fill="#EAA031"/>
<path d="M72.7355 52.9382L72.7872 57.9165H73.6485H74.5099L74.5616 55.9116L74.6133 53.9237H75.3369C76.0432 53.9237 76.0777 53.9577 76.56 54.8582C76.8529 55.3679 77.1802 55.8266 77.3008 55.8606C77.4214 55.9116 77.5248 56.0305 77.5248 56.1325C77.5248 56.3533 78.3345 57.4747 78.7135 57.7805C78.9719 58.0014 80.4535 58.0864 80.4535 57.8825C80.4535 57.6956 79.6955 56.6422 79.5577 56.6422C79.4715 56.6422 79.4198 56.5742 79.4198 56.4723C79.4198 56.3873 79.0408 55.7587 78.5584 55.079C78.0933 54.3994 77.6971 53.7877 77.6971 53.7028C77.6971 53.6178 78.0416 53.2271 78.4551 52.8363C78.8858 52.4455 79.3165 51.9188 79.4198 51.6469C79.6782 50.9333 79.4543 49.744 78.9375 49.1323C78.1622 48.2318 77.2664 47.9769 74.8373 47.9769H72.701L72.7355 52.9382ZM76.9046 49.693C77.5076 49.9818 77.7487 50.7464 77.4559 51.46C77.1458 52.1906 76.7323 52.3945 75.5608 52.3945H74.5961V51.0692C74.5961 50.3386 74.6478 49.676 74.7167 49.625C74.9062 49.4381 76.4394 49.4891 76.9046 49.693Z" fill="#EAA031"/>
<path d="M83.7267 50.4746C83.2616 50.6785 82.3485 51.7659 82.004 52.5304C81.2459 54.1955 81.8317 56.2684 83.3305 57.3388C84.0541 57.8315 84.278 57.8995 85.5184 57.9674C86.397 58.0014 87.1723 57.9505 87.603 57.7975C88.2232 57.5937 88.2921 57.5257 88.2921 56.982C88.2921 56.5402 88.2232 56.4043 88.0337 56.4553C87.1034 56.6931 85.9491 56.7951 85.3117 56.7101C84.7432 56.6252 84.4675 56.4553 84.0713 55.9965C83.5028 55.3169 83.3994 54.7052 83.8301 54.5353C83.9852 54.4844 85.1394 54.4334 86.4143 54.4334H88.7228V53.5669C88.7228 52.5984 88.2404 51.46 87.5685 50.8314C87.224 50.5086 86.9311 50.4576 85.5701 50.4066C84.6915 50.3896 83.8646 50.4066 83.7267 50.4746ZM86.5693 52.1397C87.3446 53.1251 87.1551 53.329 85.3978 53.38C83.744 53.4309 83.5028 53.295 83.899 52.5304C84.2263 51.9018 84.7949 51.545 85.484 51.545C86.018 51.545 86.2075 51.6469 86.5693 52.1397Z" fill="#EAA031"/>
<path d="M89.7564 50.5425C89.7564 50.6275 90.0665 51.494 90.4628 52.4455C91.5137 55.0621 91.617 55.3169 91.841 56.0475C91.9616 56.4213 92.1683 57.016 92.3234 57.3558C92.5646 57.9844 92.599 58.0014 93.4776 58.0014H94.3735L94.7353 57.1009C94.942 56.6252 95.1832 56.0645 95.2693 55.8776C95.3382 55.6907 95.5794 55.113 95.7861 54.6033C95.9756 54.0936 96.2168 53.5159 96.303 53.329C96.3891 53.1421 96.6475 52.4285 96.8887 51.7489C97.3883 50.3726 97.3539 50.2877 96.1996 50.3896C95.4588 50.4406 95.6139 50.1348 94.2356 54.3824C93.9255 55.3509 93.5638 56.1325 93.4604 56.1325C93.3398 56.1325 93.1503 55.6907 93.0297 55.147C92.7368 53.8217 91.7376 50.9163 91.4792 50.6105C91.238 50.3217 89.7564 50.2537 89.7564 50.5425Z" fill="#EAA031"/>
<path d="M99.1455 50.5595C99.0939 50.6955 99.0766 52.3945 99.0939 54.3485L99.1455 57.9165L99.9725 57.9675L100.782 58.0184L100.748 54.2295L100.696 50.4406L99.9552 50.3896C99.4729 50.3557 99.1972 50.4066 99.1455 50.5595Z" fill="#EAA031"/>
<path d="M105.02 50.4746C104.607 50.5765 103.918 51.3751 103.418 52.2756C103.142 52.7853 103.022 53.2951 103.022 53.9917C103.022 55.9116 103.642 56.965 105.175 57.6616C106.088 58.0694 108.087 58.1204 108.965 57.7636C109.499 57.5427 109.568 57.4408 109.568 56.9141C109.568 56.3194 109.551 56.3194 109.103 56.4893C108.828 56.5912 108.035 56.6932 107.311 56.7102C105.83 56.7272 105.503 56.5573 105.003 55.5208C104.521 54.5184 104.745 54.4334 107.622 54.4334H110.102L109.982 53.363C109.861 52.2926 109.431 51.4091 108.707 50.7804C108.397 50.5086 108.052 50.4406 106.829 50.4066C106.019 50.3897 105.192 50.4236 105.02 50.4746ZM107.656 51.8339C107.863 52.0038 108.07 52.4285 108.138 52.7683L108.242 53.414H106.657H105.089V52.9043C105.089 52.6154 105.175 52.3945 105.261 52.3945C105.365 52.3945 105.434 52.3096 105.434 52.2077C105.434 51.579 107.019 51.3241 107.656 51.8339Z" fill="#EAA031"/>
<path d="M110.947 50.5086C110.947 50.5935 111.015 50.7125 111.102 50.7634C111.188 50.8144 111.291 51.0693 111.326 51.3241C111.377 51.596 111.705 52.7513 112.066 53.9237C112.411 55.096 112.807 56.4723 112.91 56.982L113.117 57.9165L114.082 57.9675L115.047 58.0184L115.322 57.067C115.477 56.5572 115.684 55.8096 115.77 55.4019C116.339 52.7513 116.666 51.6979 116.873 51.7659C117.148 51.8508 117.459 52.8873 117.769 54.8242C117.924 55.7757 118.182 56.8801 118.337 57.2878L118.613 58.0184L119.543 57.9675L120.491 57.9165L120.99 56.3024C121.266 55.4189 121.593 54.2635 121.748 53.7538C121.886 53.2441 122.11 52.5135 122.231 52.1397C122.351 51.7659 122.506 51.2052 122.575 50.8994C122.696 50.3557 122.679 50.3557 121.989 50.3557C121.197 50.3557 120.852 50.7294 120.663 51.7319C120.611 52.0377 120.508 52.4625 120.422 52.6494C120.336 52.8363 120.129 53.6179 119.974 54.3824C119.784 55.198 119.578 55.7927 119.457 55.7927C119.268 55.7927 118.871 54.4504 118.871 53.8048C118.871 53.6688 118.751 53.1931 118.613 52.7513C118.475 52.3266 118.268 51.613 118.148 51.1542L117.941 50.3557H116.942C116.373 50.3557 115.908 50.4406 115.839 50.5595C115.65 50.8484 115.15 52.8363 114.737 54.9771C114.616 55.6058 114.461 55.9626 114.306 55.9626C114.03 55.9626 113.944 55.6907 113.789 54.4334C113.686 53.5839 113.565 53.1251 112.945 51.1202C112.721 50.4576 112.704 50.4406 111.842 50.3896C111.308 50.3557 110.947 50.4066 110.947 50.5086Z" fill="#EAA031"/>
<path d="M125.366 50.4576C125.194 50.5086 124.849 50.7464 124.591 50.9843C124.195 51.3411 124.126 51.545 124.126 52.3096C124.126 52.9382 124.212 53.312 124.436 53.5499C124.763 53.9067 126.658 54.9431 127.02 54.9431C127.433 54.9601 128.002 55.5888 128.002 56.0305C128.002 56.3703 127.881 56.5232 127.537 56.6592C127.003 56.8631 124.849 56.7101 124.332 56.4553C124.04 56.3024 124.022 56.3533 124.074 57.016C124.126 57.6786 124.177 57.7636 124.643 57.8485C124.935 57.9165 125.728 57.9675 126.434 57.9844C128.484 58.0184 129.742 57.1859 129.794 55.8096C129.811 54.8582 129.311 54.3484 127.52 53.4989C125.952 52.7513 125.917 52.7173 125.969 52.1736L126.021 51.6299L127.054 51.6469C127.623 51.6639 128.329 51.7319 128.622 51.7998C129.122 51.9018 129.173 51.8678 129.363 51.3581C129.501 50.9673 129.501 50.7464 129.38 50.6275C129.191 50.4406 125.9 50.3047 125.366 50.4576Z" fill="#EAA031"/>
</svg>
