<svg width="82" height="99" viewBox="0 0 82 99" fill="none" xmlns="http://www.w3.org/2000/svg">
<path d="M33.7717 0.275848C19.9423 1.85719 7.26261 12.2348 2.6966 25.6763C0.0686884 33.4512 0.101537 42.9393 2.79515 50.4837C6.27714 60.2024 13.1097 67.7797 22.3403 72.2272C35.8412 78.7173 51.7729 76.6089 63.2701 66.7913C79.9573 52.4933 80.91 26.6646 65.3067 11.1147C56.9302 2.7467 45.7616 -1.10783 33.7717 0.275848ZM45.7616 3.17499C56.5032 5.41523 65.8323 12.7619 70.5625 22.7112C75.1614 32.397 75.1614 43.4994 70.5625 53.1851C68.6573 57.2703 66.8835 59.7082 63.2044 63.3321C58.1128 68.3727 52.5613 71.3377 45.5973 72.7873C41.4255 73.6768 33.5746 73.4791 29.797 72.4249C16.4932 68.768 6.57278 58.2916 3.87917 45.1137C2.99225 40.6991 2.99225 35.2302 3.87917 30.8156C6.73703 16.7482 18.1028 5.6129 32.2935 2.94437C35.2828 2.38432 42.5095 2.48315 45.7616 3.17499Z" fill="#EAA031"/>
<path d="M23.6542 20.3063C18.0042 29.2672 13.4382 36.6469 13.5368 36.7457C13.6353 36.8116 14.2594 36.4162 14.9493 35.8232C17.2158 33.8136 18.694 33.3524 22.9316 33.3524L26.7092 33.3853L36.7281 36.548C49.8677 40.732 55.682 42.6757 57.1602 43.4335C59.3939 44.5865 60.018 46.8927 58.5398 48.6387C57.7186 49.5941 57.5872 49.66 55.2549 49.66H52.8241V51.6367V53.6134H56.2075C60.3137 53.6134 61.8576 53.0204 63.2044 50.9778C64.4526 49.1 64.6826 46.102 63.7299 44.0265C63.2701 43.0052 59.1968 38.5247 49.5392 28.5754C34.0016 12.4983 34.4615 13.0914 34.133 7.55663L33.936 4.06449L23.6542 20.3063Z" fill="#EAA031"/>
<path d="M25.231 50.6484V55.2606H38.2063H51.2145L51.1159 50.7142L51.0174 46.2008L38.1406 46.102L25.231 46.0361V50.6484Z" fill="#EAA031"/>
<path d="M19.7124 61.026L16.6574 64.4852H38.2064H59.7553L56.7332 61.026L53.6782 57.5668H38.2392L22.7673 57.5997L19.7124 61.026Z" fill="#EAA031"/>
<path d="M10.6132 77.5313C9.10214 78.3219 8.5437 78.9479 7.95242 80.4963C6.63846 83.9226 9.16783 87.5465 12.8469 87.5465C14.5222 87.5465 15.4091 87.217 16.6245 86.1299C17.2158 85.5698 17.3472 85.1086 17.3472 83.5272V81.6164H15.7705C14.6208 81.6164 13.9966 81.7811 13.6353 82.2094C12.8141 83.0989 12.9455 83.2637 14.3908 83.2637C15.6062 83.2637 15.7048 83.3295 15.7048 84.2191C15.7048 84.9768 15.4748 85.2733 14.5222 85.7345C13.0112 86.4593 11.5001 86.1628 10.3175 84.9438C8.01812 82.5389 9.62772 78.5855 12.9126 78.5855C13.5696 78.5855 14.4565 78.8491 14.9164 79.1456C15.5734 79.5738 15.8362 79.6068 16.2304 79.2773C16.9202 78.7173 16.7888 78.3878 15.6391 77.663C14.3251 76.8724 11.9928 76.8065 10.6132 77.5313Z" fill="#EAA031"/>
<path d="M21.2891 82.2753V87.5465H22.1103H22.9316V83.0989V78.6514H24.3441C25.9865 78.6514 26.545 79.0797 26.545 80.3316C26.545 81.4188 25.9537 81.9129 24.4426 82.1765C23.7856 82.2753 23.2929 82.473 23.3258 82.5718C23.3915 82.6707 24.2455 83.8567 25.231 85.1745C26.7092 87.1182 27.1691 87.5465 27.9246 87.5465C28.4502 87.5465 28.8444 87.4476 28.8444 87.3159C28.8444 87.1841 28.1874 86.2616 27.399 85.2403L25.9537 83.3954L26.8734 82.8683C28.0232 82.2094 28.4502 80.4304 27.8261 78.9479C27.3005 77.6301 25.8223 77.0042 23.2601 77.0042H21.2891V82.2753Z" fill="#EAA031"/>
<path d="M35.1185 77.5642C34.8886 78.0584 33.3447 81.8141 31.2423 87.1182C31.1438 87.3818 31.3737 87.5465 31.8665 87.5465C32.5234 87.5465 32.7862 87.2829 33.2133 86.2287L33.706 84.9109H35.8412H37.9435L38.4691 86.2287C38.8304 87.1841 39.1589 87.5465 39.6517 87.5465C40.0459 87.5465 40.3415 87.3488 40.3415 87.1182C40.3087 86.9205 39.4546 84.5814 38.4363 81.9459C36.531 77.1359 35.8412 76.2135 35.1185 77.5642ZM37.188 82.8683C37.4179 83.5602 37.3194 83.5931 35.9397 83.5931C34.2644 83.5931 34.2316 83.5272 34.8886 81.9129C35.1185 81.287 35.4142 80.4963 35.5784 80.1339C35.7755 79.5738 35.874 79.6397 36.3996 80.7928C36.6953 81.5176 37.0566 82.44 37.188 82.8683Z" fill="#EAA031"/>
<path d="M43.6264 82.2424C43.6264 87.3159 43.6593 87.5465 44.2834 87.5465C44.9075 87.5465 44.9404 87.3159 44.9404 84.2191C44.9404 82.4071 45.0389 80.9905 45.2032 81.0893C45.3346 81.1552 46.1887 82.6377 47.0756 84.3838C47.9953 86.1299 48.8166 87.5465 48.948 87.5465C49.0465 87.5465 49.9663 86.031 50.9846 84.1532L52.7913 80.7928L52.8241 84.1532V87.5465H53.6454H54.4666V82.2753C54.4666 77.0371 54.4666 77.0042 53.7111 77.0042C53.1198 77.0042 52.627 77.6631 51.0503 80.6281C49.9663 82.6377 48.9808 84.1532 48.8494 84.0214C48.6852 83.8567 47.7654 82.2753 46.8128 80.4634C45.4988 78.0254 44.8747 77.1359 44.3491 77.07C43.6264 76.9712 43.6264 77.0042 43.6264 82.2424Z" fill="#EAA031"/>
<path d="M58.4084 82.2753V87.5794L59.164 87.4806C59.8538 87.3818 59.8867 87.217 59.9852 84.0873L60.0837 80.7928L61.7919 84.0543C62.7445 85.8334 63.6643 87.2829 63.8285 87.2829C63.9928 87.2829 64.8468 85.9651 65.7009 84.3509C66.5878 82.7695 67.4419 81.3199 67.639 81.1552C67.8032 80.9575 67.9346 82.1106 67.9346 84.2191C67.9346 87.5135 67.9346 87.5794 68.6902 87.4806C69.4128 87.3818 69.4128 87.3159 69.4128 82.2753V77.1689H68.5916C67.9018 77.1689 67.5076 77.6631 65.9309 80.5622C64.9125 82.4401 63.9599 83.9885 63.8285 83.9555C63.6971 83.9555 62.7445 82.4401 61.7262 80.5622C60.3465 77.9925 59.7224 77.1359 59.164 77.0701L58.4084 76.9712V82.2753Z" fill="#EAA031"/>
<path d="M72.2707 77.7289C72.5335 78.1572 73.3875 79.6068 74.1102 80.9905C75.2928 83.1648 75.4899 83.7578 75.4899 85.5039C75.4899 87.4476 75.5227 87.5465 76.3111 87.5465C77.0995 87.5465 77.1323 87.4806 77.1323 85.3392C77.1323 83.2966 77.2637 82.9013 78.7748 80.2327C79.6945 78.6514 80.4172 77.2677 80.4172 77.1359C80.4172 77.0371 80.023 77.0042 79.5303 77.07C78.8405 77.1359 78.4463 77.5972 77.5265 79.2115C76.9352 80.3645 76.3111 81.287 76.2125 81.287C76.0811 81.287 75.457 80.3316 74.8657 79.1456C73.8474 77.2677 73.6175 77.0042 72.7634 77.0042C71.8436 77.0042 71.8108 77.0371 72.2707 77.7289Z" fill="#EAA031"/>
<path d="M81.2056 77.5972C81.2056 77.9266 81.4027 78.2231 81.6326 78.2231C81.8954 78.2231 81.9283 78.0255 81.6983 77.5972C81.5341 77.2677 81.337 77.0042 81.3041 77.0042C81.2384 77.0042 81.2056 77.2677 81.2056 77.5972Z" fill="#EAA031"/>
<path d="M39.9473 93.806C38.1406 98.2865 38.1078 98.4183 38.8633 98.4183C39.4218 98.4183 39.7502 98.0888 40.1444 97.1005L40.67 95.7497L42.5424 95.8486C44.3491 95.9474 44.4148 95.9804 44.7761 97.1005C45.0389 97.8912 45.4003 98.2865 45.8601 98.3524C46.2543 98.4183 46.5828 98.3194 46.5828 98.1218C46.5828 97.9241 45.8273 95.8486 44.8747 93.4766C42.5753 87.6453 42.3782 87.6453 39.9473 93.806ZM43.5936 94.0366C43.6264 94.3002 43.1994 94.4649 42.4767 94.4649C41.1627 94.4649 41.1299 94.3331 41.8854 92.4223L42.4439 91.0386L43.0023 92.3564C43.3308 93.0483 43.5936 93.839 43.5936 94.0366Z" fill="#EAA031"/>
<path d="M74.5044 90.5445C74.5044 91.7964 74.4387 91.8623 73.7817 91.5987C72.4678 91.1375 70.3326 91.3022 69.6428 91.9282C68.0003 93.4107 67.9346 96.0133 69.4785 97.5617C70.1355 98.2536 70.6282 98.4183 71.8436 98.4183C72.6977 98.4183 73.5846 98.2206 73.8146 97.99C74.1759 97.6935 74.2745 97.6935 74.4059 97.99C74.5044 98.2206 74.8329 98.4183 75.1942 98.4183C75.7855 98.4183 75.8184 98.1218 75.8184 93.806C75.8184 89.4244 75.7855 89.1937 75.1614 89.1937C74.6029 89.1937 74.5044 89.4244 74.5044 90.5445ZM73.6832 93.3118C74.1431 93.7401 74.5044 94.4978 74.5044 94.9591C74.5044 96.0463 73.1576 97.4299 72.1064 97.4299C70.1026 97.4299 68.9858 94.992 70.234 93.3777C71.1538 92.2247 72.5992 92.1917 73.6832 93.3118Z" fill="#EAA031"/>
<path d="M57.2587 92.2576C56.2732 93.2459 56.109 93.6413 56.109 94.9591C56.109 96.211 56.2732 96.6722 57.0616 97.4629C57.8828 98.2536 58.3099 98.4183 59.6238 98.4183C60.5107 98.4183 61.3977 98.2536 61.6276 98.0229C61.9232 97.7264 62.0218 97.7264 62.0218 98.0229C62.0218 98.2536 62.3174 98.4183 62.6788 98.4183C63.3029 98.4183 63.3357 98.1877 63.3357 94.9591V91.4999H62.2846C61.6933 91.4999 60.5764 91.434 59.8209 91.3022C58.5398 91.1045 58.3099 91.2034 57.2587 92.2576ZM61.3648 93.1471C62.3503 94.1355 62.2517 95.8815 61.1677 96.7381C60.675 97.1334 60.018 97.4299 59.6567 97.4299C58.7369 97.4299 57.4229 95.9474 57.4229 94.9261C57.4229 92.8836 59.9852 91.7634 61.3648 93.1471Z" fill="#EAA031"/>
<path d="M66.7849 91.4999C66.6864 91.6646 66.2265 91.7305 65.7666 91.6317L64.9782 91.434V94.9261C64.9782 98.1877 65.0111 98.4183 65.6352 98.4183C66.2265 98.4183 66.2922 98.1877 66.2922 95.7827C66.2922 93.2789 66.325 93.1142 67.1134 92.7518C67.5733 92.5541 67.9018 92.1588 67.8689 91.8952C67.7375 91.2693 67.0805 91.0057 66.7849 91.4999Z" fill="#EAA031"/>
<path d="M77.6908 91.7305C76.5739 93.0153 76.8695 94.2672 78.5448 95.1897C80.023 96.0133 80.2858 96.6393 79.3332 97.2323C78.8405 97.5288 78.6105 97.4629 78.1178 96.8699C77.3951 95.9474 76.8038 95.8815 76.8038 96.7051C76.8038 97.8253 77.6251 98.55 78.939 98.55C80.4501 98.55 81.1399 97.7264 81.0085 96.1121C80.91 95.1567 80.7129 94.8602 79.596 94.2672C78.1506 93.5424 77.8878 92.7188 79.0376 92.5541C79.4317 92.4882 79.7602 92.587 79.7602 92.7847C79.7602 92.9824 80.0559 93.1471 80.4172 93.1471C81.2384 93.1471 81.2713 92.4223 80.4829 91.7305C79.6945 91.0057 78.3477 91.0057 77.6908 91.7305Z" fill="#EAA031"/>
<path d="M47.5354 94.9591C48.1924 96.8699 48.8822 98.4183 49.1122 98.4183C49.3421 98.4183 49.7692 97.5617 50.0648 96.5075C50.3604 95.4862 50.7218 94.4978 50.8532 94.3661C50.9846 94.2013 51.3788 95.0579 51.7072 96.2439C52.3314 98.4183 52.857 98.9454 53.3168 97.8582C53.6125 97.1005 55.452 91.7305 55.452 91.5987C55.452 91.5328 55.1564 91.4999 54.8279 91.4999C54.3023 91.4999 54.0395 91.9282 53.6125 93.3777C53.284 94.432 52.9555 95.3874 52.8241 95.5191C52.7256 95.6509 52.3642 94.7944 52.0357 93.6083C51.2474 90.8739 50.6889 90.9398 49.7692 93.806L49.1122 95.9474L48.4552 93.7072C47.8968 91.8623 47.6997 91.4999 47.0755 91.4999C46.3857 91.4999 46.3857 91.5658 47.5354 94.9591Z" fill="#EAA031"/>
</svg>
