<svg width="83" height="83" viewBox="0 0 83 83" fill="none" xmlns="http://www.w3.org/2000/svg">
<path d="M36.3755 0.0545731C20.3278 2.0638 6.99386 12.9188 1.93166 28.0271C0.366034 32.724 0.0268141 34.9942 0.000720254 40.7348C-0.0253736 47.3366 0.653066 51.0941 2.76666 56.2085L3.57557 58.1394L4.20182 57.4871L4.85417 56.8608L4.04526 54.5385C3.15807 51.9291 2.16651 47.3627 2.21869 46.0319C2.24479 45.4578 2.34916 45.7709 2.58401 46.9973C3.39292 51.355 5.1412 56.5477 5.66308 56.0258C5.87183 55.8171 5.74136 55.1386 5.24558 53.5991C4.28011 50.6244 3.78432 48.1716 3.62776 45.6927L3.52339 43.6051L3.86261 45.8231C4.28011 48.4325 4.56714 49.5545 5.63698 52.8163L6.4198 55.2691L7.15043 54.5646L7.85496 53.8861L7.22871 51.7464C6.3937 48.8761 5.84574 45.1186 5.87183 42.5614L5.92402 40.4739L6.13277 43.1876C6.36761 45.9797 7.33308 50.4939 8.06371 52.2683C8.42902 53.1033 8.5073 53.1816 8.84652 52.8424C9.18574 52.5031 9.15965 52.1378 8.55949 49.8677C7.98543 47.6497 7.85496 46.5798 7.80277 42.9528L7.72449 38.6473L7.93324 42.0395C8.14199 45.6927 8.45512 47.5453 9.29012 50.2069L9.7859 51.8769L10.4122 51.3028C10.7775 50.9636 10.9862 50.5983 10.9079 50.4939C10.8297 50.3634 10.5426 49.0849 10.2556 47.6497C9.89028 45.7187 9.75981 44.0487 9.81199 41.4394L9.83809 37.8645L10.0207 41.2828C10.2034 44.2053 10.4382 45.8231 11.2472 49.4241C11.3254 49.7372 11.4559 49.9981 11.5603 49.9981C11.6647 49.9981 12.2387 49.4763 12.865 48.85L13.9609 47.728L13.6478 45.5361C12.9954 41.1262 13.9609 33.4807 15.4222 31.2106C15.657 30.8453 19.284 27.14 23.4591 22.9389L31.0785 15.3195L33.2703 14.6671C37.1583 13.4929 41.8813 13.1537 45.8215 13.7538L47.648 14.0409L48.7962 12.9188C49.4224 12.2926 49.9443 11.7185 49.9443 11.6141C49.9443 11.5098 49.6833 11.3793 49.3702 11.301C45.7693 10.4921 44.1515 10.2573 41.229 10.0746L37.8107 9.86585L42.3771 9.94413C45.8215 9.99632 47.4132 10.1529 48.8223 10.5182L50.7271 11.0401L51.2751 10.4399L51.823 9.83975L50.1008 9.31788C47.4654 8.50897 44.0993 7.98709 41.0724 7.93491C38.6196 7.90881 38.5152 7.88272 40.0286 7.75225C42.638 7.5174 46.9435 7.90881 49.8138 8.63944C52.084 9.2135 52.4493 9.2396 52.7885 8.90038C53.1277 8.56116 53.0494 8.48288 52.2144 8.11756C50.3879 7.36084 45.8476 6.42146 42.9772 6.18662L40.1591 5.97787L42.3771 5.92568C45.0647 5.89959 48.7962 6.44756 51.6926 7.28256L53.8323 7.90881L54.5107 7.20428L55.1891 6.49974L53.6757 5.95177C51.4316 5.14287 48.2743 4.30787 45.8997 3.91646L43.8122 3.57724L45.7693 3.68161C48.1438 3.83818 50.6488 4.36005 53.5452 5.29943C55.0848 5.79521 55.7632 5.92568 55.972 5.71693C56.4938 5.19505 51.3012 3.44677 46.9435 2.63786C45.7171 2.40302 45.404 2.29864 45.978 2.27255C47.3088 2.22036 51.8752 3.21193 54.4846 4.09911L56.807 4.90802L57.4332 4.25568L58.0856 3.62943L56.1546 2.82052C51.5099 0.889576 47.5437 0.132854 41.7247 0.0284805C39.298 -0.0237083 36.8713 0.00238419 36.3755 0.0545731ZM37.3671 10.2573C37.1061 10.3094 36.6886 10.3094 36.4538 10.2573C36.1928 10.179 36.4016 10.1268 36.8974 10.1268C37.3932 10.1268 37.6019 10.179 37.3671 10.2573ZM10.2034 37.3948C10.1251 37.6558 10.0729 37.4992 10.0729 37.0817C10.0729 36.6381 10.1251 36.4554 10.2034 36.612C10.2556 36.7947 10.2556 37.16 10.2034 37.3948ZM2.11432 44.8316C2.03604 45.0403 1.95776 44.962 1.95776 44.675C1.93166 44.388 2.00994 44.2314 2.08823 44.3358C2.16651 44.4141 2.1926 44.6489 2.11432 44.8316Z" fill="#EAA031"/>
<path d="M38.0716 16.3632C26.6947 17.5374 17.4836 26.9051 16.3094 38.4386C15.0308 50.8853 23.1459 62.2883 35.4622 65.4196C38.8544 66.2807 43.8383 66.2285 47.361 65.3152C49.866 64.6628 53.2843 63.1233 55.424 61.662C57.1462 60.4878 60.0165 57.6436 61.2951 55.8692C69.3059 44.5967 66.8531 29.3318 55.6849 21.0601C52.1884 18.4507 47.8829 16.8068 43.4208 16.3371C41.9596 16.2066 40.6288 16.1023 40.4461 16.1023C40.2896 16.1283 39.2197 16.2327 38.0716 16.3632ZM46.7869 17.9288C54.6934 19.7554 61.1385 25.6526 63.7479 33.4546C67.949 45.9797 61.1124 59.5745 48.483 63.8017C38.3325 67.1939 27.2949 63.4625 21.2672 54.6167C16.6747 47.8584 15.944 38.6995 19.4145 31.2889C23.1198 23.3563 30.3739 18.2419 39.2458 17.2765C40.9158 17.0938 44.569 17.4069 46.7869 17.9288Z" fill="#EAA031"/>
<path d="M35.9841 18.6073C32.5397 19.3379 28.73 21.2167 25.9902 23.5651C22.3892 26.6442 19.4667 31.5498 18.5012 36.1163L18.3186 36.9774L22.9894 36.9252C25.5466 36.8991 28.3125 36.8208 29.1475 36.7425L30.6349 36.6381V30.4017V24.1653H32.2005C34.1314 24.1653 34.9403 24.5306 35.3839 25.5744C35.8797 26.7486 35.8275 29.4101 35.2535 30.2452C34.836 30.8975 34.836 31.0541 35.3578 33.82C35.9058 36.6903 35.9058 36.6903 36.6625 36.6903H37.4192V30.4278V24.1653H38.3325H39.2458V30.4278V36.6903H39.8982C40.3418 36.6903 40.5766 36.5077 40.681 36.0902C40.8114 35.5161 42.3771 24.4784 42.3771 24.087C42.3771 23.9565 42.8729 23.9044 43.473 23.9565L44.595 24.0348L45.43 29.9059C45.8736 33.1416 46.2651 35.9858 46.2651 36.2206C46.2911 36.4816 46.4477 36.6903 46.6565 36.6903C47.074 36.6903 47.1001 36.5599 47.9872 30.0364C48.8744 23.3825 48.7179 23.9044 49.9443 23.9044C51.1707 23.9044 51.0141 23.4086 51.9013 30.0364C52.2666 32.7502 52.6319 35.3856 52.7102 35.8292L52.8407 36.6903H58.2943H63.7479L63.226 34.8377C61.0863 27.14 54.5368 20.7992 46.6043 18.79C43.6818 18.0332 38.9588 17.955 35.9841 18.6073Z" fill="#EAA031"/>
<path d="M32.4614 27.8184C32.4614 29.5928 32.4875 29.671 33.0616 29.5928C33.5835 29.5145 33.6356 29.384 33.6356 27.8184C33.6356 26.2528 33.5835 26.1223 33.0616 26.044C32.4875 25.9657 32.4614 26.044 32.4614 27.8184Z" fill="#EAA031"/>
<path d="M43.3164 29.671C43.0294 31.2106 43.1338 32.5153 43.5513 32.5153C43.8905 32.5153 43.9427 32.2282 43.7861 30.7409C43.6817 29.7754 43.5774 28.9665 43.5513 28.9143C43.5252 28.8882 43.4208 29.2274 43.3164 29.671Z" fill="#EAA031"/>
<path d="M49.6833 31.0801C49.6833 31.7325 49.8138 32.2543 49.9443 32.2543C50.1009 32.2543 50.2052 31.7325 50.2052 31.0801C50.2052 30.4278 50.1009 29.9059 49.9443 29.9059C49.8138 29.9059 49.6833 30.4278 49.6833 31.0801Z" fill="#EAA031"/>
<path d="M32.4614 34.0809V36.6903H33.1399C33.7661 36.6903 33.8183 36.612 33.6617 35.8292C33.5835 35.3856 33.4008 34.2114 33.2181 33.2198C33.0616 32.2544 32.8267 31.4715 32.6963 31.4715C32.5658 31.4715 32.4614 32.6458 32.4614 34.0809Z" fill="#EAA031"/>
<path d="M42.899 34.9681C42.899 35.2551 42.8207 35.777 42.7424 36.0901C42.5858 36.612 42.6641 36.6903 43.3948 36.6903C44.1515 36.6903 44.2037 36.6381 44.2037 35.6726C44.2037 34.8116 44.1254 34.655 43.5513 34.5506C43.0294 34.4462 42.899 34.5245 42.899 34.9681Z" fill="#EAA031"/>
<path d="M49.318 35.0203C49.2397 35.2551 49.1614 35.7248 49.1614 36.0641C49.1614 36.5859 49.2919 36.6903 49.9443 36.6903C50.5966 36.6903 50.7271 36.5859 50.7271 36.0641C50.7271 35.0986 50.4661 34.6028 49.9443 34.6028C49.6833 34.6028 49.3963 34.7855 49.318 35.0203Z" fill="#EAA031"/>
<path d="M18.1098 41.3611C18.1098 54.7733 30.1913 65.5501 43.5774 64.0627C49.031 63.4887 53.467 61.349 57.381 57.4349C60.147 54.669 61.817 51.9813 62.9651 48.563C63.8262 45.9797 64.4003 41.7264 64.1393 39.8477L63.9828 38.6213L41.0463 38.5952L18.1098 38.543V41.3611ZM27.9733 41.5438C28.4952 41.9091 28.5474 42.1439 28.5474 44.5707C28.5474 47.4671 28.2603 48.1716 27.06 48.1716C26.4859 48.1716 26.4599 48.2499 26.4599 50.2591C26.4599 51.9552 26.3816 52.3988 26.0424 52.5293C25.8075 52.6076 25.5466 52.5554 25.4422 52.3988C25.3639 52.2683 25.3117 49.659 25.3639 46.6321L25.4422 41.1263H26.4077C26.9556 41.1263 27.6602 41.3089 27.9733 41.5438ZM30.6349 46.2146V51.3029H31.2872C31.8091 51.3029 31.9396 51.4333 31.9396 51.9813C31.9396 52.6076 31.8874 52.6337 30.7131 52.5554L29.4606 52.4771L29.4867 49.8677C29.5128 48.4325 29.5389 45.8754 29.565 44.1793C29.5911 41.3089 29.6172 41.1263 30.113 41.1263C30.6088 41.1263 30.6349 41.3089 30.6349 46.2146ZM35.0708 41.4394C35.0708 41.6221 35.3578 44.1271 35.6971 46.9974C36.0363 49.8677 36.2189 52.3205 36.1146 52.451C35.6971 52.8946 35.0708 52.3727 35.0708 51.5638C35.0708 50.9115 34.9664 50.781 34.4446 50.781C33.9488 50.781 33.7922 50.9636 33.6617 51.6943C33.5313 52.3727 33.3486 52.6076 32.9833 52.6076C32.3571 52.6076 32.331 52.8163 32.9833 47.0496C33.6878 40.9436 33.6357 41.1263 34.4185 41.1263C34.7838 41.1263 35.0708 41.2828 35.0708 41.4394ZM39.7155 41.7003C39.7938 42.0396 39.6372 42.17 39.1414 42.17H38.463V47.4149C38.463 52.0857 38.4108 52.6337 38.0455 52.5032C37.8107 52.4249 37.5758 52.3466 37.5236 52.3466C37.4714 52.3466 37.4193 50.0504 37.4193 47.2583C37.4193 42.3527 37.3932 42.17 36.8974 42.17C36.5582 42.17 36.3755 41.9874 36.3755 41.6482C36.3755 41.1524 36.506 41.1002 37.9933 41.1785C39.298 41.2307 39.6372 41.335 39.7155 41.7003ZM41.4638 45.0404C41.4899 47.1279 41.4377 49.6068 41.3855 50.5722C41.3072 52.1118 41.229 52.3466 40.7854 52.3466C40.3157 52.3466 40.2896 52.0857 40.2896 46.7104V41.1002L40.8897 41.1785C41.4638 41.2567 41.4638 41.3089 41.4638 45.0404ZM44.0471 41.8308C44.1254 42.2483 44.3863 43.7357 44.6212 45.1708C44.856 46.606 45.0908 47.8324 45.1691 47.9107C45.2213 47.9629 45.2474 46.5016 45.1952 44.6489C45.1169 41.4133 45.143 41.2567 45.6388 41.2567C46.1085 41.2567 46.1607 41.4133 46.1346 43.0833C46.1085 44.0749 46.0824 46.5799 46.0563 48.6152C46.0302 52.3205 46.0302 52.3466 45.4301 52.3466C44.856 52.3466 44.8038 52.164 44.3341 49.398C44.0732 47.8063 43.7601 46.345 43.6296 46.2146C43.473 46.058 43.3947 46.1885 43.4208 46.606C43.4469 46.9713 43.473 48.4065 43.4469 49.7894C43.4208 51.8769 43.3426 52.3466 43.0294 52.3466C42.7424 52.3466 42.638 52.0596 42.638 51.3551C42.638 50.8332 42.5597 48.4847 42.4554 46.1885C42.3771 43.8661 42.3771 41.7786 42.4554 41.5438C42.5597 41.3089 42.899 41.1263 43.2643 41.1263C43.7601 41.1263 43.9427 41.2828 44.0471 41.8308ZM48.3787 46.3711V51.5899L48.9788 51.5116C49.5529 51.4333 49.5529 51.4072 49.6312 46.2668C49.6834 41.5177 49.7355 41.1002 50.153 41.1785C50.5444 41.2567 50.5966 41.7525 50.5966 46.5277C50.5966 49.8155 50.4923 51.903 50.3357 52.0596C49.7877 52.6076 48.5091 52.6597 47.9351 52.164C47.3871 51.7204 47.361 51.4594 47.3088 46.606C47.2827 43.8139 47.2827 41.4394 47.3088 41.3089C47.3088 41.2046 47.5698 41.1263 47.8568 41.1263C48.3526 41.1263 48.3787 41.3089 48.3787 46.3711ZM53.3626 41.7003C53.3626 42.0396 53.5713 43.8922 53.8323 45.8232L54.2759 49.3458L54.7456 45.223L55.2413 41.1263H55.972H56.7287V46.7365C56.7287 51.5377 56.6765 52.3466 56.3373 52.3466C56.0241 52.3466 55.9459 51.8769 55.9198 49.7894C55.8415 45.3535 55.711 45.223 55.1891 49.0849C54.8238 51.903 54.7195 52.2162 54.2498 52.2162C53.7801 52.2162 53.6757 51.903 53.3104 49.0849L52.8668 45.9536L52.8146 47.7802C52.7885 48.7718 52.7363 49.7111 52.6841 49.8677C52.658 49.9982 52.6059 50.6244 52.6059 51.2246C52.5537 52.0335 52.4493 52.3466 52.1623 52.3466C51.823 52.3466 51.7709 51.5377 51.7709 46.7365V41.1263H52.5537C53.1799 41.1263 53.3365 41.2307 53.3626 41.7003Z" fill="#EAA031"/>
<path d="M26.4598 44.6489C26.4598 46.893 26.512 47.1539 26.9295 47.0756C27.3209 46.9973 27.3731 46.6842 27.3731 44.6489C27.3731 42.6136 27.3209 42.3005 26.9295 42.2222C26.512 42.1439 26.4598 42.4048 26.4598 44.6489Z" fill="#EAA031"/>
<path d="M34.1836 46.3972C33.7922 49.7111 33.7922 49.7372 34.3402 49.7372C34.8099 49.7372 34.836 49.6068 34.6533 47.5715C34.575 46.3972 34.4445 45.3796 34.3924 45.3535C34.3663 45.3013 34.2619 45.771 34.1836 46.3972Z" fill="#EAA031"/>
<path d="M78.6736 26.6181L78.0473 27.2705L78.7518 29.7494C79.5868 32.6197 80.2131 36.5338 80.187 38.3864C80.1348 39.6389 80.1348 39.6389 79.9522 37.9428C79.6651 35.5422 79.0128 32.5153 78.23 29.9581C77.7081 28.2098 77.4993 27.8445 77.2384 28.0794C76.9514 28.3142 76.9775 28.6273 77.3689 29.9581C78.0995 32.2805 78.5953 35.4378 78.7518 38.543L78.8823 41.2567L78.6214 39.0388C78.2039 35.2812 76.7687 29.1231 76.299 29.1231C76.2207 29.1231 75.8554 29.4101 75.5423 29.7494C74.9682 30.3495 74.9682 30.4017 75.3336 31.8891C76.1686 35.2291 76.4556 38.2038 76.299 42.17C76.2468 43.2921 76.1425 42.6397 76.0381 40.213C75.8554 36.9513 75.5684 35.1769 74.7073 31.9151C74.4464 30.9758 74.3942 30.9236 73.9767 31.315C73.5592 31.7064 73.5592 31.8369 73.9767 33.8722C74.6029 37.0034 74.7856 40.0042 74.5507 42.9006L74.342 45.4317L74.1854 40.9958C74.0289 36.8469 73.4548 32.985 72.9329 32.6458C72.8025 32.5936 72.5154 32.7502 72.2545 33.0372C71.8631 33.4808 71.837 33.7156 72.1501 35.4378C72.7242 38.83 72.3589 47.5714 71.6021 48.0411C71.4978 48.1194 71.5239 47.6758 71.6804 47.0496C72.0718 45.4057 72.0457 38.4647 71.6282 36.0902L71.2629 34.0548L69.8799 35.4117C69.1232 36.1684 68.5492 36.873 68.6274 37.0034C68.7057 37.1339 68.7579 38.7778 68.7579 40.6827C68.7318 44.388 68.3926 46.6582 67.2967 49.8938C66.0442 53.6252 65.6527 54.1471 59.7034 60.0443C54.3019 65.4196 54.041 65.6284 51.9535 66.5156C47.7524 68.316 42.6641 69.1771 38.3847 68.8118L36.6364 68.6552L35.3056 69.986L34.0009 71.3168L36.0363 71.6821C38.4108 72.0996 45.3518 72.1257 46.9957 71.7343C47.6219 71.5778 48.0655 71.5517 47.9872 71.656C47.5175 72.4128 38.7761 72.7781 35.3839 72.204C33.6617 71.8909 33.4269 71.917 32.9833 72.3084C32.6963 72.5693 32.5397 72.8563 32.5919 72.9607C32.905 73.4826 37.0539 74.1089 41.0724 74.2393L45.3779 74.3959L42.8989 74.6046C40.0286 74.8395 36.8713 74.6307 33.8183 74.0306C31.783 73.6131 31.6525 73.6131 31.2611 74.0306C30.8697 74.4481 30.9219 74.5003 31.8613 74.7612C35.0708 75.6223 36.8713 75.9093 40.0286 76.092C42.351 76.1964 42.9772 76.3007 41.8552 76.3268C37.8106 76.4834 35.2013 76.2485 31.8352 75.3875C30.3478 75.0221 30.2956 75.0221 29.6955 75.5962C29.3563 75.9093 29.0692 76.2746 29.0692 76.3529C29.0692 76.7965 34.3402 78.0751 38.2021 78.597L40.9419 78.9362L38.3325 78.8057C35.2795 78.6492 32.1483 78.1273 29.9042 77.4228C28.5734 77.0314 28.2603 77.0053 28.0255 77.2923C27.7906 77.5532 28.1559 77.762 29.9042 78.2839C32.6702 79.1189 35.4622 79.719 37.9411 79.98C39.846 80.1887 39.846 80.1887 38.463 80.2409C36.5581 80.267 32.6441 79.6407 29.6433 78.7796L27.1905 78.1012L26.5381 78.7536L25.8858 79.432L27.3992 80.0061C35.4361 83.0329 45.9258 83.1373 54.3802 80.267C60.2774 78.2578 65.4179 74.996 70.1931 70.247C76.1164 64.2976 79.4825 58.2438 81.4395 49.9982C82.3267 46.2146 82.5615 39.6389 81.9353 35.4378C81.4917 32.4631 80.5523 28.7839 79.7434 26.9573L79.2998 25.9397L78.6736 26.6181Z" fill="#EAA031"/>
<path d="M62.9912 77.762C62.9912 77.9968 63.0956 78.1795 63.2261 78.1795C63.3565 78.1795 63.5131 78.4926 63.5653 78.884C63.6697 79.7973 64.1393 79.8495 64.2437 78.9623C64.4003 77.9446 64.8178 77.6837 64.8178 78.6231C64.8178 79.5885 65.2092 79.9538 65.5484 79.3276C65.8354 78.8057 66.1486 78.8057 66.4356 79.3276C66.8009 79.9538 67.1662 79.5624 67.1662 78.5709C67.1662 77.5532 66.8531 77.2401 66.3834 77.7881C66.1225 78.1012 65.9659 78.1273 65.6789 77.8663C65.4701 77.7098 64.7656 77.501 64.1393 77.4488C63.2261 77.3705 62.9912 77.4488 62.9912 77.762Z" fill="#EAA031"/>
</svg>
