<svg width="111" height="84" viewBox="0 0 111 84" fill="none" xmlns="http://www.w3.org/2000/svg">
<path d="M86.025 5.87055C83.0063 6.37103 79.4598 7.65606 77.7812 8.84639C76.969 9.42804 76.1704 10.4831 75.859 11.3894C75.5206 12.4039 75.5341 13.8242 75.9132 14.6493C76.1974 15.285 77.6594 17.6522 80.7593 22.5082C81.6121 23.8338 82.2754 24.9565 82.2483 24.9971C82.2077 25.0242 81.4902 24.7942 80.651 24.4696C79.2432 23.9285 79.0266 23.8744 77.903 23.8744C76.9419 23.8744 76.5494 23.942 76.0485 24.172C74.5866 24.8483 73.6661 25.9034 73.0976 27.6213L72.7456 28.6763L72.4072 28.3247C72.2312 28.1353 71.7168 27.7024 71.2701 27.3643C68.5763 25.3218 64.6101 24.6454 61.5373 25.7005C60.847 25.9305 60.8199 25.9305 60.319 25.6734C59.561 25.2812 58.0178 24.9971 57.2733 25.1053C56.2174 25.2541 55.0262 25.6734 54.4441 26.1063C54.1328 26.3227 53.8485 26.5121 53.8079 26.5121C53.7673 26.5121 53.7402 26.228 53.7402 25.8628C53.7402 24.6048 53.3748 22.7788 52.9957 22.0754C51.8587 19.9788 49.3544 18.7749 46.999 19.1942C44.1563 19.6947 42.4237 21.5614 42.0988 24.4155C42.0311 25.0783 41.9634 26.4309 41.9634 27.3913V29.1498L40.9752 28.2029C38.3627 25.687 34.2882 24.7401 30.0918 25.714C28.5757 26.0522 27.4928 26.5256 26.3016 27.3237C25.7601 27.6889 25.2593 28 25.2051 28C25.151 28 24.9615 27.7836 24.7855 27.5266C24.3659 26.9044 23.3235 26.1469 22.4301 25.8087C20.156 24.943 17.8818 25.3759 16.3116 26.9855C15.5129 27.7971 14.6466 29.4203 14.3352 30.6648C14.2405 31.057 14.1187 31.3817 14.0645 31.3817C14.0104 31.3817 13.5501 30.6106 13.0493 29.6503C12.5349 28.7034 11.858 27.6483 11.5332 27.2966C8.81232 24.3749 3.885 25.2812 2.13878 29.028C1.61085 30.1507 1.48903 31.7739 1.80037 33.1401C1.94927 33.7218 3.0322 36.1024 5.06268 40.228C6.74122 43.6367 8.12195 46.4367 8.12195 46.4638C8.12195 46.4773 7.74293 46.6802 7.26915 46.9102C4.56183 48.2493 3.39768 51.4821 4.68366 54.1875C5.41464 55.743 7.02549 56.9604 8.94768 57.4203C10.9105 57.8802 13.9698 57.5015 15.7295 56.5817C18.2473 55.2696 19.2355 53.6058 21.1171 47.5053C21.5909 46.0039 21.997 44.8 22.0376 44.8271C22.0646 44.8677 22.2948 45.3546 22.552 45.9227C23.2152 47.4648 23.7973 48.3575 24.772 49.372C26.8431 51.5092 29.3338 52.4966 32.7044 52.4966C36.4405 52.4966 39.5133 51.3739 41.8416 49.1556L42.3154 48.6957L42.6402 49.3855C43.1005 50.3459 44.197 51.4145 45.2799 51.9556C46.0515 52.3343 46.3763 52.4155 47.3916 52.4561C48.082 52.4966 48.8671 52.4425 49.2326 52.3478C50.0177 52.1585 51.1277 51.6174 51.5338 51.2387C51.994 50.8058 52.1159 51.0358 52.1159 52.3614C52.1159 54.9044 53.2529 56.7575 55.4323 57.7855C56.3393 58.2048 56.4611 58.2319 57.9366 58.2319C59.4121 58.2319 59.5474 58.2048 60.4002 57.7991C62.2277 56.9334 63.3241 55.4454 63.649 53.4164L63.7979 52.3884L65.3682 52.3073C67.6559 52.2126 69.199 51.658 71.0265 50.3053C71.6221 49.859 71.8387 49.7778 72.3801 49.7778C72.7321 49.7913 73.3683 49.8995 73.7744 50.0483C74.2617 50.2242 74.8708 50.3053 75.5341 50.3053C76.1974 50.3053 76.8066 50.2242 77.2939 50.0483C77.8895 49.8319 78.4174 49.7913 79.9741 49.7778C81.8422 49.7778 81.9234 49.7913 82.6815 50.1701C84.3735 51.0222 87.0132 51.8068 88.8677 51.9962C91.0741 52.2396 93.2265 51.0763 94.1605 49.1285C94.4989 48.4387 94.5395 48.1681 94.6072 46.4638L94.6884 44.5701L95.7307 46.1391C96.5429 47.3565 96.922 47.8029 97.4905 48.1952C99.1013 49.2908 100.861 49.3991 102.648 48.5198C105.166 47.2754 108.821 42.6222 109.376 39.9575C109.822 37.8203 108.915 35.629 107.169 34.628C106.777 34.3981 105.802 34.0058 104.99 33.7353C104.029 33.4106 103.582 33.2077 103.704 33.1266C103.799 33.0725 104.421 32.8831 105.085 32.7208C106.641 32.342 107.67 31.6657 108.401 30.5701C109.403 29.0821 109.511 27.1884 108.712 25.2812C107.738 22.9411 106.005 20.4116 104.354 18.8696C102.729 17.3817 100.929 16.8812 99.1284 17.4222C97.8424 17.8145 97.125 18.4097 95.812 20.1681C95.0945 21.142 94.6749 21.6019 94.6207 21.4802C94.5666 21.3855 94.4854 20.4522 94.4312 19.4106C94.35 17.3952 94.0251 12.8503 93.8221 10.6454C93.6055 8.42707 92.7256 7.04736 90.9794 6.18166C90.1537 5.77586 89.9777 5.74881 88.5969 5.72176C87.7848 5.70823 86.6206 5.77586 86.025 5.87055ZM90.7899 6.27634C91.778 6.72272 92.8745 7.80485 93.2535 8.71113C93.5919 9.46862 93.7409 11.0648 94.2146 18.5314C94.2959 19.7623 94.3906 21.0879 94.4312 21.4802L94.5124 22.1971L95.7578 20.5333C96.4617 19.6135 97.2198 18.6937 97.4634 18.4908C98.8848 17.287 100.915 17.057 102.729 17.8821C103.568 18.2744 105.721 20.4657 106.695 21.9131C109.01 25.3894 109.606 27.743 108.672 29.7855C107.941 31.3546 106.953 32.0715 104.638 32.6802C103.853 32.8831 103.162 33.086 103.108 33.1401C103.054 33.1942 103.69 33.4648 104.53 33.7488C106.682 34.4657 107.372 34.8174 108.022 35.5208C109.186 36.7923 109.633 38.5372 109.173 40.1198C108.211 43.4609 104.218 48.0329 101.606 48.7768C100.157 49.1826 98.5463 48.8445 97.3145 47.8706C96.8543 47.5053 96.394 46.8831 94.9456 44.6377L94.553 44.029L94.4718 46.1256C94.4041 48.0058 94.3635 48.3034 94.0522 48.9797C93.8627 49.3991 93.4837 49.9942 93.1994 50.3053C92.6173 50.9411 91.3449 51.6174 90.3567 51.7933C88.7458 52.0908 85.2534 51.2657 82.7221 49.9807C82.0723 49.6561 81.9234 49.6425 79.9741 49.6425C78.2821 49.6561 77.7677 49.6966 77.1585 49.9131C76.1974 50.2512 74.9656 50.2512 73.8827 49.9131C73.4224 49.7643 72.705 49.6425 72.3124 49.6425C71.6898 49.6425 71.5138 49.7102 70.9182 50.1836C70.0789 50.8329 68.5899 51.5768 67.4799 51.8744C67.0332 51.9962 65.9909 52.1314 65.1516 52.172L63.6355 52.2532L63.5543 52.8754C63.3106 54.7285 62.8774 55.6619 61.7404 56.7034C60.698 57.6638 59.764 58.0425 58.2073 58.1237C57.2733 58.1778 56.8943 58.1372 56.1768 57.8937C54.4848 57.3391 53.2394 56.1894 52.6167 54.6068C52.4137 54.0792 52.3324 53.4841 52.2783 52.1855L52.2241 50.4812L51.5067 51.0628C50.3696 51.9826 49.4762 52.2667 47.7841 52.2802C46.4711 52.2802 46.2951 52.2532 45.4829 51.8609C44.9956 51.6309 44.3188 51.1846 43.9804 50.887C43.3848 50.3459 42.5049 48.9391 42.5049 48.5063C42.5049 48.1681 42.383 48.2358 41.7333 48.9662C40.4338 50.4135 38.1055 51.5904 35.5335 52.1044C33.7332 52.4561 30.8905 52.3884 29.3744 51.942C26.2339 51.0358 23.8379 48.7768 22.552 45.5575C22.3624 45.0705 22.2 44.5565 22.2 44.4483C22.2 43.772 21.8616 44.6106 20.8599 47.7759C19.4115 52.3614 18.7346 53.7952 17.4216 55.1073C16.3387 56.1894 15.5535 56.6222 13.8615 57.1092C12.3183 57.5285 9.65159 57.5285 8.39268 57.0957C5.9561 56.257 4.49415 54.4715 4.35878 52.1991C4.22342 49.8184 5.45524 47.83 7.63463 46.9372L8.36561 46.6261L8.05427 45.9362C7.89183 45.5575 6.48403 42.6899 4.95439 39.5788C3.22171 36.0754 2.0711 33.5865 1.96281 33.086C1.28598 30.2454 2.46366 27.5807 4.91378 26.3768C6.61939 25.5382 8.35207 25.5247 9.99 26.3227C11.1812 26.9044 11.8445 27.7024 12.9951 29.9343C13.5501 31.03 14.0374 31.9227 14.078 31.9227C14.1187 31.9227 14.2946 31.4222 14.4706 30.8C15.1339 28.487 16.2304 26.9179 17.76 26.1063C18.4504 25.7276 18.7888 25.6464 19.6687 25.5923C21.8751 25.457 23.7161 26.2686 24.7855 27.8106L25.1916 28.4058L25.8278 27.8783C27.7229 26.3092 30.2813 25.5247 33.4354 25.5382C36.8195 25.5517 39.3373 26.6203 41.3949 28.8928L42.2071 29.7991L42.2612 26.6338C42.3018 23.7256 42.3424 23.401 42.6267 22.6976C43.2765 21.0338 45.131 19.6541 47.1073 19.3295C49.9771 18.8696 52.8062 20.7768 53.3341 23.5227C53.4018 23.9285 53.4695 24.8483 53.4695 25.5788C53.4695 26.3227 53.5101 26.9179 53.5507 26.9179C53.5913 26.9179 53.8621 26.7285 54.1463 26.5121C54.4306 26.2821 55.0262 25.944 55.4594 25.7411C56.8672 25.1053 59.3309 25.1865 60.4679 25.9169C60.7387 26.0928 60.9011 26.0657 61.957 25.7546C65.2869 24.7536 69.4291 25.7546 71.9063 28.1353C72.4478 28.6493 72.8945 29.0551 72.8945 29.0416C72.9081 29.028 72.9893 28.6628 73.084 28.2435C73.5984 25.8763 75.3176 24.2261 77.524 23.9962C78.4445 23.9015 79.1619 24.0773 81.2601 24.9024C82.0046 25.2 82.6409 25.4164 82.6679 25.3759C82.7085 25.3353 81.6256 23.5633 80.2719 21.4261C78.9183 19.3024 77.3751 16.8406 76.8472 15.9749L75.8726 14.4058V12.9855C75.8726 11.687 75.8996 11.4976 76.2516 10.8348C76.4682 10.429 76.9419 9.80678 77.3074 9.45509C78.5122 8.2918 81.9234 6.87151 85.0774 6.23576C87.0267 5.84349 87.1079 5.84349 88.5969 5.87055C89.7611 5.8976 90.0724 5.95171 90.7899 6.27634Z" fill="#EAA031"/>
<path d="M87.3245 9.3604C84.7661 9.67152 80.8405 11.0106 79.8794 11.8763C78.8506 12.7962 78.6882 12.4309 83.1688 19.5053C87.9066 27.0126 88.1232 27.3372 88.624 27.6754C89.1384 28.0135 90.0318 28.0135 90.4244 27.6619C91.3043 26.8773 91.3043 26.3633 90.4108 14C90.1266 10.1314 90.0589 9.77973 89.5174 9.49567C89.0978 9.27925 88.3533 9.22514 87.3245 9.3604Z" fill="#EAA031"/>
<path d="M99.9271 21.0068C99.7511 21.0879 98.5193 22.63 97.1927 24.4425C94.0387 28.7169 93.8085 29.0551 93.8085 29.4474C93.8085 30.3536 94.6613 31.2464 95.5277 31.2464C96.0556 31.2464 103.988 29.3256 104.719 29.0145C105.382 28.744 105.572 28.4599 105.585 27.716C105.585 26.1875 102.594 21.629 101.159 21.0203C100.645 20.8039 100.36 20.7904 99.9271 21.0068Z" fill="#EAA031"/>
<path d="M46.8366 23.0222C46.4846 23.2116 46.1191 23.5227 45.9567 23.8068C45.686 24.2667 45.686 24.4831 45.686 35.8454C45.686 46.5449 45.6995 47.4377 45.9161 47.8435C46.6606 49.1962 48.8806 49.2367 49.7063 47.8976L50.0177 47.4106V35.7778C50.0177 22.63 50.0854 23.4957 48.9618 22.9817C48.2038 22.6435 47.5676 22.657 46.8366 23.0222Z" fill="#EAA031"/>
<path d="M77.321 27.6348C76.4411 28.1488 76.1568 29.3797 76.1433 32.6667C76.1433 35.0338 76.1704 35.2908 76.4411 35.8725C76.6441 36.3189 76.8743 36.5894 77.1991 36.7382C77.6323 36.9411 77.7135 36.9411 78.8641 36.5894C81.4767 35.7913 86.8237 34.0599 87.0673 33.9382C87.338 33.7894 87.6765 33.2078 87.7171 32.802C87.866 31.4087 87.7171 31.287 82.7762 29.2715C80.475 28.3247 78.3633 27.5401 78.1061 27.5131C77.8489 27.4725 77.4969 27.5401 77.321 27.6348Z" fill="#EAA031"/>
<path d="M56.7454 28.9604C55.6354 29.515 55.7031 28.7034 55.6624 41.1884C55.6354 49.1015 55.6624 52.4831 55.7707 52.9836C55.9602 53.8763 56.4746 54.4174 57.3274 54.6338C58.3562 54.8908 59.385 54.485 59.8723 53.6329C59.9806 53.457 60.0618 52.2667 60.1024 50.4271C60.1431 48.8174 60.2107 47.4512 60.2649 47.3971C60.319 47.343 60.6981 47.5189 61.0906 47.7894C63.3512 49.2773 66.5323 49.142 68.7929 47.4377C70.8505 45.8957 71.6491 43.772 71.8387 39.3623C72.0146 35.0744 71.1754 32.0309 69.3885 30.4619C68.2379 29.4474 66.3699 28.8116 64.5695 28.8116C63.0534 28.8116 61.9163 29.1768 60.4815 30.1372C60.1972 30.3266 59.9535 30.4483 59.9265 30.4213C59.9129 30.3942 59.7776 30.1237 59.6287 29.8396C59.2632 29.1227 58.7623 28.7846 57.9772 28.7169C57.4899 28.6763 57.1785 28.7305 56.7454 28.9604ZM67.2362 32.8831C68.1432 33.2213 68.7929 34.2087 69.1178 35.6966C69.3344 36.7517 69.375 40.1198 69.1584 41.3778C68.7929 43.6503 67.7777 44.6512 65.8555 44.6512C63.3783 44.6512 62.2683 42.9469 62.2683 39.0918C62.2683 37.3469 62.4307 35.9942 62.7827 34.8986C63.067 33.9788 63.8927 33.0995 64.6507 32.8966C65.3682 32.7073 66.7624 32.7073 67.2362 32.8831Z" fill="#EAA031"/>
<path d="M19.222 29.2445C18.9648 29.4203 18.5857 29.8667 18.3827 30.2319C18.1932 30.6106 17.3674 33.1401 16.5688 35.8725C15.7701 38.6184 15.0798 40.8503 15.0391 40.8503C14.9985 40.8503 13.6449 38.3749 12.034 35.3314C8.79878 29.2309 8.78524 29.2174 7.55341 29.2174C6.01024 29.2174 4.995 30.5024 5.27927 32.085C5.34695 32.4097 7.01195 35.9672 9.00183 40.0116C10.9917 44.0561 12.6432 47.5594 12.6838 47.8029C12.7785 48.4387 12.5078 49.1826 12.0476 49.5073C11.7498 49.7102 11.452 49.7778 10.7345 49.7778C10.2337 49.7778 9.5839 49.8454 9.31317 49.9131C7.20146 50.5082 7.29622 53.173 9.46207 53.8222C10.1254 54.0116 11.831 54.0116 12.7515 53.8222C14.3759 53.4705 15.2151 52.7672 16.0409 51.0628C16.2845 50.5353 17.6923 46.342 19.1543 41.7295C20.6162 37.1169 21.9293 32.9778 22.0782 32.5449C22.7279 30.516 22.0917 29.1904 20.3455 29.001C19.804 28.9333 19.6145 28.9739 19.222 29.2445Z" fill="#EAA031"/>
<path d="M31.6079 29.0686C28.9954 29.4879 27.3033 30.6512 26.1933 32.7614C25.5571 33.9517 25.2457 35.2502 25.0427 37.401C24.5689 42.771 26.0309 46.6261 29.1713 48.1681C33.2729 50.1836 40.2037 47.8705 40.2037 44.4754C40.2037 43.4068 39.4591 42.6087 38.4304 42.6087C37.943 42.6087 37.4151 42.9063 36.1427 43.8802C34.7484 44.9623 32.7991 45.2328 31.432 44.5565C30.2543 43.9749 29.5098 42.744 29.5098 41.3913C29.5098 40.4309 29.3879 40.4444 35.0327 40.4444C39.8652 40.4444 40.0818 40.4309 40.339 40.1739C40.4879 40.0251 40.6368 39.7546 40.691 39.5517C40.8399 38.97 40.6368 35.3043 40.4067 34.371C39.784 31.8415 38.2679 30.1101 35.9938 29.3527C35.0462 29.028 32.7721 28.8792 31.6079 29.0686ZM34.0174 33.0725C35.2493 33.5865 36.0209 34.7768 36.0615 36.2377L36.075 37.1304L32.366 37.171C29.7534 37.1981 28.6028 37.1575 28.481 37.0493C27.8718 36.5488 28.8735 34.2357 29.9971 33.5324C30.2678 33.37 30.7145 33.1536 30.9852 33.0589C31.6621 32.8155 33.4218 32.829 34.0174 33.0725Z" fill="#EAA031"/>
<path d="M95.4329 34.7227C94.7426 34.9797 94.1063 36.0754 94.2688 36.7382C94.4177 37.2928 99.2096 44.9759 99.6157 45.2735C99.9948 45.5575 100.753 45.4764 101.403 45.0706C103.135 43.9614 105.856 40.1334 105.856 38.7807C105.856 37.8879 105.64 37.7797 100.699 36.1295C96.3534 34.6821 95.8796 34.5604 95.4329 34.7227Z" fill="#EAA031"/>
<path d="M88.8677 36.4812C88.7188 36.5217 88.5022 36.6164 88.3804 36.7111C88.1638 36.8599 83.1146 42.771 82.3837 43.7179C81.9776 44.2589 81.8828 44.9217 82.1535 45.4222C82.6679 46.3826 86.756 48.1411 88.976 48.371C89.9777 48.4657 90.5868 48.2222 90.817 47.6271C90.8982 47.4242 90.9659 45.1923 90.9929 42.3788L91.0335 37.4821L90.641 37.0763C90.3026 36.7246 89.4768 36.3459 89.2061 36.4C89.1655 36.4135 89.0166 36.4541 88.8677 36.4812Z" fill="#EAA031"/>
<path d="M74.7896 45.4763C74.5866 45.6657 74.4106 45.9904 74.3565 46.2879C74.2888 46.7208 74.3429 46.8425 74.6949 47.2077C75.5206 48.0329 76.7524 47.5594 76.7524 46.4097C76.7524 45.3952 75.5477 44.8271 74.7896 45.4763ZM76.3869 45.7334C76.7254 46.1392 76.6848 46.7478 76.2787 47.1401C75.7101 47.7218 74.8844 47.5189 74.6001 46.7614C74.194 45.6928 75.6424 44.8541 76.3869 45.7334Z" fill="#EAA031"/>
<path d="M75.1416 46.4232C75.1551 46.8155 75.1957 47.0049 75.2228 46.829C75.2499 46.6667 75.3446 46.5314 75.4259 46.5314C75.4935 46.5314 75.683 46.6667 75.8319 46.829C76.035 47.0725 76.0621 47.086 75.9673 46.8831C75.8726 46.7073 75.8861 46.545 75.9809 46.3826C76.1974 46.0309 75.9944 45.7198 75.5341 45.7198C75.128 45.7198 75.128 45.7198 75.1416 46.4232ZM75.9132 46.085C75.9809 46.315 75.5612 46.4773 75.3717 46.2879C75.2905 46.2068 75.2769 46.085 75.3311 45.9904C75.4529 45.801 75.8319 45.8686 75.9132 46.085Z" fill="#EAA031"/>
<path d="M2.03049 62.087C1.75976 62.3575 1.75976 62.5333 1.75976 71.9478V81.5517L2.11171 81.8222C2.46366 82.1063 2.57195 82.1063 11.8716 82.1063H21.2795L21.6721 81.714L22.0646 81.3218V71.9208C22.0646 62.628 22.0646 62.5198 21.7804 62.1681L21.5096 61.8164H11.8987C2.4772 61.8164 2.30122 61.8164 2.03049 62.087ZM12.7785 66.4155C13.1982 67.944 13.6043 69.3237 13.672 69.486C13.7938 69.7836 13.8344 69.7971 16.8124 69.8242L19.8311 69.8647L17.381 71.515L14.9309 73.1517L15.9461 76.1546C16.5011 77.7913 16.9207 79.171 16.8801 79.2116C16.8395 79.2522 15.7837 78.4541 14.5248 77.4261C13.2794 76.4116 12.1829 75.5189 12.0882 75.4512C11.9799 75.3565 11.2218 75.9246 9.61098 77.3044C8.33854 78.4 7.25561 79.2522 7.215 79.2251C7.17439 79.1846 7.55342 77.8048 8.05427 76.1546C8.54159 74.5044 8.93415 73.1382 8.90707 73.1111C8.88 73.0976 7.77 72.3536 6.42988 71.4744L3.99329 69.8647L7.0661 69.8242L10.1389 69.7971L10.342 69.0802C10.4502 68.7015 10.8293 67.3353 11.1677 66.0773C11.7904 63.8319 11.8987 63.5073 11.9799 63.6019C12.007 63.629 12.3589 64.887 12.7785 66.4155Z" fill="#EAA031"/>
<path d="M23.9598 62.087C23.689 62.3575 23.689 62.5333 23.689 71.9478V81.5517L24.041 81.8222C24.3929 82.1063 24.5012 82.1063 33.8009 82.1063H43.2088L43.6013 81.714L43.9939 81.3218V71.9208C43.9939 62.628 43.9939 62.5198 43.7096 62.1681L43.4389 61.8164H33.8279C24.4065 61.8164 24.2305 61.8164 23.9598 62.087ZM34.789 66.686C35.168 68.0657 35.5335 69.3237 35.6012 69.486C35.723 69.7836 35.7637 69.7971 38.7417 69.8242L41.7604 69.8647L39.4591 71.4068C38.2002 72.2454 37.0902 72.9894 36.9955 73.0705C36.8872 73.1652 37.1038 73.9768 37.8618 76.1681C38.4304 77.8048 38.85 79.171 38.8094 79.2116C38.7688 79.2657 37.7129 78.4541 36.454 77.4396C35.2087 76.4116 34.1122 75.5189 34.0174 75.4512C33.9091 75.3565 33.1782 75.8976 31.6485 77.1961C30.4302 78.2377 29.3609 79.1304 29.2526 79.1846C29.0089 79.3333 29.036 79.2251 30.0648 75.8435C30.525 74.3691 30.8634 73.1382 30.8363 73.1111C30.8228 73.0976 29.6993 72.3536 28.3591 71.4744L25.9226 69.8647L28.9954 69.8242L32.0682 69.7971L32.2171 69.2155C32.6502 67.6193 33.7467 63.7643 33.8144 63.6425C33.9091 63.4937 33.8956 63.4802 34.789 66.686Z" fill="#EAA031"/>
<path d="M45.7537 62.087C45.4829 62.3575 45.4829 62.5333 45.4829 71.9478V81.5517L45.8349 81.8222C46.1868 82.1063 46.2951 82.1063 55.5135 82.1063C62.0517 82.1063 64.9215 82.0657 65.1516 81.9575C65.3411 81.8763 65.5577 81.6599 65.6389 81.4705C65.7472 81.2406 65.7878 78.373 65.7878 71.8396C65.7878 62.628 65.7878 62.5198 65.5035 62.1681L65.2328 61.8164H55.6218C46.2004 61.8164 46.0244 61.8164 45.7537 62.087ZM56.1227 65.4145C56.3934 66.3749 56.7724 67.7411 56.9755 68.4445L57.341 69.7295L60.3461 69.7701C61.9976 69.7836 63.3512 69.8512 63.3512 69.9053C63.3512 69.9594 62.2818 70.6899 60.9823 71.542C59.6828 72.3807 58.6134 73.1382 58.6134 73.2329C58.6134 73.314 59.0737 74.7073 59.6287 76.344C60.2649 78.1971 60.5762 79.2657 60.4544 79.2251C60.3596 79.1846 59.2226 78.2918 57.9366 77.2503C55.9196 75.5865 55.5812 75.3565 55.3782 75.5053C55.0804 75.7353 51.5879 78.6976 51.2089 79.0358C51.0329 79.1846 50.8705 79.2792 50.8299 79.2387C50.7893 79.1981 51.1548 77.8454 51.6421 76.2358C52.1429 74.6261 52.5219 73.2599 52.4949 73.1923C52.4678 73.1247 51.3578 72.3536 50.0312 71.4744L47.5946 69.8647L50.6945 69.7971L53.7809 69.7295L54.4171 67.43C55.3376 64.0889 55.5135 63.5343 55.5812 63.6019C55.6083 63.6425 55.8655 64.4541 56.1227 65.4145Z" fill="#EAA031"/>
<path d="M67.5746 62.1275L67.2768 62.4387V71.9478V81.4435L67.6152 81.7681L67.9401 82.1063H77.2939C86.9184 82.1063 86.9996 82.1063 87.4057 81.5788C87.5276 81.4164 87.5682 79.1304 87.5817 71.9478C87.5817 62.6145 87.5817 62.5198 87.2974 62.1681L87.0267 61.8164H77.4428H67.8589L67.5746 62.1275ZM78.6476 66.7807L79.5004 69.7971L82.5596 69.8242L85.6189 69.8647L83.1823 71.4744C81.8422 72.3536 80.7322 73.0841 80.7051 73.1111C80.6916 73.1247 81.1383 74.4908 81.7068 76.1546C82.2618 77.8048 82.695 79.1846 82.6544 79.2251C82.6273 79.2657 81.5173 78.4135 80.2043 77.3449C78.8912 76.2899 77.7677 75.4106 77.7 75.4106C77.6323 75.4106 76.6035 76.2493 75.3988 77.2773C74.2076 78.3053 73.1382 79.171 73.0434 79.2116C72.908 79.2657 73.1382 78.3324 73.7338 76.3981C74.2211 74.8155 74.6272 73.4222 74.6407 73.314C74.6407 73.2058 73.6119 72.4348 72.2177 71.4879L69.7811 69.8647L72.7862 69.8242C75.48 69.7971 75.8049 69.7701 75.9132 69.5536C75.9808 69.4319 76.3869 68.0387 76.8337 66.456C77.2668 64.8734 77.6729 63.629 77.7135 63.6831C77.7677 63.7372 78.1873 65.1304 78.6476 66.7807Z" fill="#EAA031"/>
<path d="M89.4768 62.114C89.2061 62.3981 89.2061 62.5333 89.2061 71.9208V81.4435L89.5445 81.7681L89.8694 82.1063H99.2096C105.761 82.1063 108.645 82.0657 108.875 81.9575C109.064 81.8763 109.281 81.6599 109.362 81.4705C109.47 81.2406 109.511 78.373 109.511 71.8396C109.511 62.628 109.511 62.5198 109.227 62.1681L108.956 61.8164H99.3585H89.7611L89.4768 62.114ZM100.225 66.7131L101.064 69.7295L104.069 69.7701C105.721 69.7836 107.074 69.8512 107.074 69.9053C107.074 69.9594 106.005 70.6899 104.705 71.542C103.406 72.3807 102.337 73.1382 102.337 73.2193C102.337 73.3005 102.797 74.6802 103.352 76.3169C103.907 77.9401 104.313 79.2657 104.259 79.2657C104.205 79.2657 103.068 78.3865 101.741 77.3044C99.6563 75.6135 99.2909 75.3565 99.1013 75.5053C98.8035 75.7353 95.3111 78.6976 94.9321 79.0358C94.7561 79.1846 94.5937 79.2792 94.5531 79.2387C94.4989 79.1981 94.8644 77.8725 95.3517 76.2899C95.8526 74.7208 96.2451 73.3546 96.2451 73.2599C96.2451 73.1788 95.1351 72.3807 93.7815 71.4879L91.3178 69.8647L94.4041 69.7971L97.504 69.7295L98.2215 67.1594C99.2367 63.5478 99.2367 63.5343 99.3179 63.629C99.3585 63.6696 99.7646 65.0493 100.225 66.7131Z" fill="#EAA031"/>
</svg>
